<?xml version="1.0" standalone="no"?>
<!DOCTYPE svg PUBLIC "-//W3C//DTD SVG 20010904//EN"
 "http://www.w3.org/TR/2001/REC-SVG-20010904/DTD/svg10.dtd">
<svg version="1.0" xmlns="http://www.w3.org/2000/svg"
 width="1080.000000pt" height="1080.000000pt" viewBox="0 0 1080.000000 1080.000000"
 preserveAspectRatio="xMidYMid meet">

<g transform="translate(0.000000,1080.000000) scale(0.100000,-0.100000)"
fill="#000000" stroke="none">
<path d="M5150 10379 c-80 -4 -176 -13 -215 -18 -38 -6 -126 -18 -195 -26
-583 -71 -1114 -223 -1565 -447 -236 -118 -520 -300 -665 -428 -14 -12 -64
-56 -112 -97 -158 -138 -360 -373 -489 -568 -271 -412 -420 -823 -485 -1340
-25 -195 -25 -647 0 -825 59 -417 174 -735 380 -1050 166 -253 367 -458 660
-674 655 -483 1662 -837 3101 -1090 269 -47 519 -104 715 -163 315 -93 362
-108 393 -124 9 -5 39 -16 65 -25 215 -71 471 -202 704 -359 53 -35 75 -44 63
-25 -6 9 -301 232 -392 296 -23 16 -103 76 -178 134 -75 58 -158 121 -184 140
-26 19 -108 82 -182 140 -73 58 -151 117 -171 133 -21 15 -48 36 -61 47 -13
11 -52 43 -88 70 -35 27 -104 81 -154 119 -125 98 -398 307 -600 461 -258 197
-470 361 -645 499 -58 46 -139 108 -180 139 -123 91 -628 480 -730 561 -52 42
-160 126 -240 186 -177 134 -265 204 -337 270 -81 73 -196 243 -242 355 -79
195 -75 173 -77 430 -2 129 1 262 6 296 8 55 40 159 85 282 77 211 295 478
512 624 99 68 257 149 378 195 49 19 117 45 150 58 74 29 254 76 418 109 523
107 1231 105 1767 -5 260 -53 400 -94 670 -197 446 -169 879 -444 1284 -813
60 -55 115 -99 124 -97 8 2 43 57 79 123 301 560 703 1327 703 1342 0 16 -197
184 -381 326 -185 141 -464 309 -768 462 -256 128 -362 172 -606 254 -401 134
-811 228 -1205 276 -69 8 -159 19 -200 25 -203 27 -613 35 -910 19z"/>
<path d="M3687 7866 c5 -9 70 -62 144 -116 157 -117 238 -178 318 -240 33 -25
91 -70 131 -100 40 -30 100 -77 135 -105 34 -27 104 -81 154 -120 51 -38 102
-78 114 -89 12 -10 64 -50 115 -90 123 -93 275 -210 390 -299 52 -40 115 -88
141 -107 53 -40 326 -250 538 -415 78 -60 203 -157 278 -215 75 -58 218 -170
318 -249 174 -137 219 -172 443 -341 179 -136 317 -242 429 -329 61 -48 128
-99 150 -116 22 -16 42 -32 45 -35 3 -4 32 -29 65 -55 91 -74 139 -120 236
-234 141 -162 181 -230 242 -401 45 -129 46 -139 47 -385 l1 -230 -39 -155
c-22 -85 -49 -173 -61 -195 -11 -22 -21 -44 -21 -50 0 -21 -101 -186 -185
-303 -69 -97 -104 -135 -192 -208 -147 -122 -233 -184 -328 -234 -44 -24 -88
-50 -99 -59 -10 -9 -20 -15 -22 -14 -2 2 -30 -9 -61 -23 -55 -25 -227 -89
-323 -120 -79 -26 -270 -71 -435 -102 -259 -49 -291 -54 -505 -68 -94 -6 -553
-6 -630 1 -36 3 -108 8 -160 11 -162 10 -173 11 -255 23 -245 38 -622 132
-800 199 -44 17 -127 47 -185 68 -58 20 -151 58 -207 84 -55 27 -111 51 -122
55 -12 3 -21 11 -21 16 0 5 -5 9 -12 9 -6 0 -19 6 -27 13 -9 7 -41 24 -71 37
-30 13 -67 32 -81 42 -14 9 -29 15 -33 11 -3 -3 -6 -1 -6 6 0 7 -5 9 -10 6 -6
-3 -10 -2 -10 4 0 5 -10 13 -22 17 -12 3 -28 13 -36 20 -7 8 -17 12 -22 9 -4
-3 -11 2 -14 11 -4 9 -9 14 -12 11 -4 -3 -15 3 -27 13 -11 11 -24 17 -29 14
-4 -3 -8 0 -8 6 0 6 -4 8 -10 5 -5 -3 -10 -1 -10 4 0 6 -6 11 -14 11 -8 0 -16
4 -18 8 -4 11 -110 82 -121 82 -4 0 -13 5 -20 10 -62 53 -185 135 -198 132 -3
0 -27 19 -53 44 -26 24 -52 44 -56 44 -5 0 -29 17 -53 38 -25 20 -58 47 -73
59 -16 12 -38 30 -49 40 -12 10 -54 47 -95 83 -41 36 -153 142 -248 235 -96
94 -177 171 -181 173 -4 1 -30 -39 -58 -90 -28 -51 -79 -142 -113 -203 -101
-178 -106 -187 -139 -249 -17 -33 -36 -65 -42 -72 -19 -23 -79 -144 -71 -144
4 0 2 -4 -4 -8 -12 -7 -115 -186 -115 -199 0 -5 -6 -15 -13 -23 -18 -21 -81
-134 -77 -139 1 -2 -1 -7 -6 -10 -9 -7 -14 -16 -83 -147 -29 -54 -61 -109 -72
-121 -20 -22 -20 -23 -3 -50 31 -47 238 -252 248 -246 6 3 7 1 4 -4 -6 -10
107 -121 178 -175 17 -12 49 -40 73 -62 57 -53 123 -96 135 -89 6 3 7 2 4 -4
-3 -5 3 -17 14 -26 10 -9 19 -15 19 -13 0 3 13 -9 30 -25 18 -18 35 -27 42
-23 7 4 10 4 6 -1 -8 -8 73 -75 91 -75 5 0 15 -8 20 -17 6 -10 11 -14 11 -10
0 5 7 1 16 -7 8 -9 20 -13 26 -10 7 4 8 2 4 -4 -4 -7 7 -18 26 -28 18 -9 47
-27 64 -40 17 -13 34 -20 38 -17 3 4 6 1 6 -5 0 -13 100 -79 113 -74 4 1 7 -2
7 -7 0 -5 30 -25 68 -45 37 -21 85 -48 107 -61 21 -13 43 -21 47 -19 4 3 8 1
8 -4 0 -12 156 -93 164 -85 3 4 6 2 6 -4 0 -15 233 -124 450 -210 63 -25 130
-52 148 -60 18 -9 41 -16 50 -17 9 -1 35 -10 57 -20 40 -17 293 -96 435 -136
123 -34 413 -99 533 -120 386 -67 1121 -123 1292 -99 28 4 149 13 270 19 375
20 694 66 1026 150 505 127 918 298 1305 537 69 43 133 83 142 88 173 104 560
466 748 700 180 224 313 450 438 746 97 229 156 444 211 769 37 216 35 792 -5
1015 -69 395 -171 675 -354 969 -103 166 -176 257 -336 417 -293 294 -604 505
-1080 732 -482 231 -1240 461 -2115 643 -143 29 -368 76 -500 104 -132 27
-305 67 -385 89 -80 22 -206 56 -280 76 -207 57 -502 157 -635 216 -110 49
-155 72 -314 162 -38 21 -51 25 -44 13z m-2602 -5607 c11 -16 1 -19 -13 -3 -7
8 -8 14 -3 14 5 0 13 -5 16 -11z"/>
</g>
</svg>
