<?xml version="1.0" encoding="utf-8"?>
<!-- Generator: Adobe Illustrator 27.5.0, SVG Export Plug-In . SVG Version: 6.00 Build 0)  -->
<svg version="1.1" xmlns="http://www.w3.org/2000/svg" xmlns:xlink="http://www.w3.org/1999/xlink" x="0px" y="0px"
	 viewBox="0 0 500 500" style="enable-background:new 0 0 500 500;" xml:space="preserve">
<g id="Background_Complete">
	<g>
		<rect y="382.398" style="fill:#EBEBEB;" width="500" height="0.25"/>
		<rect x="416.779" y="398.494" style="fill:#EBEBEB;" width="33.122" height="0.25"/>
		<rect x="322.527" y="401.208" style="fill:#EBEBEB;" width="8.693" height="0.25"/>
		<rect x="396.586" y="389.208" style="fill:#EBEBEB;" width="19.192" height="0.25"/>
		<rect x="52.459" y="390.888" style="fill:#EBEBEB;" width="43.193" height="0.25"/>
		<rect x="104.556" y="390.888" style="fill:#EBEBEB;" width="6.333" height="0.25"/>
		<rect x="131.471" y="395.111" style="fill:#EBEBEB;" width="93.676" height="0.25"/>
		<path style="fill:#EBEBEB;" d="M237.014,337.8H43.915c-3.147,0-5.708-2.561-5.708-5.708V60.66c0-3.147,2.561-5.708,5.708-5.708
			h193.099c3.146,0,5.707,2.561,5.707,5.708v271.432C242.721,335.239,240.16,337.8,237.014,337.8z M43.915,55.203
			c-3.01,0-5.458,2.448-5.458,5.458v271.432c0,3.01,2.448,5.458,5.458,5.458h193.099c3.009,0,5.457-2.448,5.457-5.458V60.66
			c0-3.009-2.448-5.458-5.457-5.458H43.915z"/>
		<path style="fill:#EBEBEB;" d="M453.31,337.8H260.212c-3.147,0-5.707-2.561-5.707-5.708V60.66c0-3.147,2.561-5.708,5.707-5.708
			H453.31c3.148,0,5.708,2.561,5.708,5.708v271.432C459.019,335.239,456.458,337.8,453.31,337.8z M260.212,55.203
			c-3.009,0-5.457,2.448-5.457,5.458v271.432c0,3.01,2.448,5.458,5.457,5.458H453.31c3.01,0,5.458-2.448,5.458-5.458V60.66
			c0-3.009-2.448-5.458-5.458-5.458H260.212z"/>
	</g>
	<g>
		<g>
			<g>
				<g>
					
						<ellipse transform="matrix(0.8886 -0.4587 0.4587 0.8886 -88.9383 117.7744)" style="fill:#F0F0F0;" cx="197.965" cy="241.963" rx="105.714" ry="131.387"/>
				</g>
				<g>
					
						<ellipse transform="matrix(0.8886 -0.4587 0.4587 0.8886 -86.3671 120.7333)" style="fill:#FFFFFF;" cx="205.346" cy="238.153" rx="85.326" ry="106.048"/>
				</g>
				<g>
					<path style="fill:#F0F0F0;" d="M272.442,203.515c21.518,41.68,11.775,89.504-21.761,106.815
						c-33.536,17.314-78.165-2.44-99.682-44.121c-21.518-41.679-11.775-89.502,21.761-106.816
						C206.295,142.08,250.924,161.834,272.442,203.515z"/>
				</g>
				<g>
					<path style="fill:#FFFFFF;" d="M261.035,209.403c16.525,32.008,9.865,68.311-14.875,81.082
						c-24.739,12.771-58.191-2.822-74.715-34.831c-16.525-32.009-9.865-68.311,14.875-81.082
						C211.06,161.801,244.511,177.395,261.035,209.403z"/>
				</g>
				<g>
					<path style="fill:#F0F0F0;" d="M252.876,215.82c11.784,22.825,7.665,48.385-9.198,57.09
						c-16.863,8.706-40.086-2.741-51.869-25.564c-11.783-22.824-7.665-48.385,9.199-57.09
						C217.87,181.55,241.093,192.995,252.876,215.82z"/>
				</g>
				<g>
					<path style="fill:#FFFFFF;" d="M246.976,218.866c8.51,16.485,6.149,34.629-5.275,40.526
						c-11.423,5.898-27.583-2.685-36.094-19.171c-8.51-16.484-6.149-34.629,5.274-40.526
						C222.306,193.798,238.466,202.382,246.976,218.866z"/>
				</g>
			</g>
			<g>
				<polygon style="fill:#F0F0F0;" points="379.453,121.501 348.755,137.35 346.476,167.499 372.375,183.102 403.073,167.254 
					376.669,151.912 				"/>
			</g>
			<g>
				<path style="fill:#F5F5F5;" d="M231.83,232.755c-2.33,0.312-4.708-0.841-5.848-3.05c-1.451-2.81-0.349-6.264,2.461-7.715
					l150.295-77.591c2.808-1.45,6.264-0.349,7.715,2.462c1.451,2.81,0.348,6.264-2.462,7.715l-150.295,77.591
					C233.095,232.477,232.464,232.67,231.83,232.755z"/>
			</g>
		</g>
		<g>
			<path style="fill:#EBEBEB;" d="M409.356,250.536v4.818l2.481,0.234c0.335,1.615,0.975,3.116,1.85,4.45l-1.594,1.925l3.407,3.407
				l1.925-1.594c1.334,0.875,2.835,1.516,4.45,1.85l0.234,2.481h4.818l0.234-2.481c1.615-0.335,3.117-0.975,4.45-1.85l1.925,1.594
				l3.407-3.407l-1.593-1.925c0.875-1.334,1.515-2.835,1.85-4.45l2.481-0.234v-4.818l-2.481-0.234
				c-0.335-1.615-0.975-3.117-1.85-4.45l1.593-1.925l-3.407-3.407l-1.925,1.593c-1.333-0.875-2.835-1.515-4.45-1.85l-0.234-2.481
				h-4.818l-0.234,2.481c-1.615,0.335-3.117,0.975-4.45,1.85l-1.925-1.593l-3.407,3.407l1.594,1.925
				c-0.875,1.334-1.515,2.835-1.85,4.45L409.356,250.536z M424.518,246.422c3.602,0,6.522,2.92,6.522,6.522
				c0,3.602-2.92,6.522-6.522,6.522s-6.522-2.92-6.522-6.522C417.996,249.342,420.916,246.422,424.518,246.422z"/>
			<path style="fill:#EBEBEB;" d="M401.216,272.095l1.383,1.145l2.448-2.448l-1.145-1.383c0.629-0.958,1.089-2.037,1.329-3.197
				l1.783-0.168v-3.462l-1.782-0.168c-0.241-1.161-0.701-2.239-1.329-3.197l1.145-1.383l-2.448-2.448l-1.383,1.145
				c-0.958-0.629-2.037-1.088-3.198-1.329l-0.168-1.783l-3.462,0.001l-0.168,1.782c-1.161,0.241-2.24,0.701-3.198,1.329
				l-1.383-1.145l-2.448,2.448l1.145,1.383c-0.629,0.958-1.089,2.037-1.329,3.197l-1.782,0.168v3.462l1.782,0.168
				c0.241,1.16,0.701,2.239,1.329,3.197l-1.145,1.383l2.448,2.448l1.383-1.145c0.958,0.629,2.037,1.089,3.198,1.329l0.168,1.782
				h3.462l0.168-1.783C399.179,273.184,400.258,272.724,401.216,272.095z M391.434,264.313c0-2.588,2.098-4.686,4.686-4.686
				c2.588,0,4.686,2.098,4.686,4.686c0,2.588-2.098,4.686-4.686,4.686C393.532,269,391.434,266.901,391.434,264.313z"/>
			<path style="fill:#EBEBEB;" d="M416.601,295.543c1.382-0.286,2.666-0.834,3.807-1.583l1.646,1.363l2.914-2.914l-1.363-1.647
				c0.749-1.14,1.296-2.425,1.583-3.807l2.122-0.2v-4.121l-2.122-0.2c-0.286-1.382-0.834-2.666-1.583-3.807l1.363-1.647
				l-2.914-2.914l-1.646,1.363c-1.141-0.749-2.425-1.296-3.807-1.583l-0.2-2.122h-4.122l-0.2,2.122
				c-1.382,0.286-2.666,0.834-3.807,1.583l-1.646-1.363l-2.914,2.914l1.363,1.647c-0.748,1.141-1.296,2.425-1.582,3.807l-2.122,0.2
				v4.121l2.122,0.2c0.286,1.382,0.834,2.666,1.582,3.807l-1.363,1.647l2.914,2.914l1.646-1.363
				c1.141,0.749,2.425,1.296,3.807,1.583l0.2,2.122h4.122L416.601,295.543z M408.761,284.695c0-3.081,2.498-5.579,5.579-5.579
				c3.081,0,5.579,2.498,5.579,5.579c0,3.081-2.498,5.579-5.579,5.579C411.259,290.275,408.761,287.777,408.761,284.695z"/>
		</g>
		<path style="fill:#EBEBEB;" d="M74.159,114.832v4.818l2.481,0.234c0.335,1.615,0.975,3.116,1.85,4.45l-1.593,1.925l3.407,3.407
			l1.925-1.594c1.334,0.875,2.835,1.516,4.45,1.85l0.234,2.481h4.818l0.234-2.481c1.615-0.335,3.117-0.975,4.45-1.85l1.925,1.594
			l3.407-3.407l-1.593-1.925c0.875-1.334,1.515-2.835,1.85-4.45l2.481-0.234v-4.818l-2.481-0.234
			c-0.335-1.615-0.975-3.117-1.85-4.45l1.593-1.925l-3.407-3.407l-1.925,1.593c-1.333-0.875-2.835-1.515-4.45-1.85l-0.234-2.481
			h-4.818l-0.234,2.481c-1.615,0.335-3.116,0.975-4.45,1.85l-1.925-1.593l-3.407,3.407l1.593,1.925
			c-0.875,1.334-1.515,2.835-1.85,4.45L74.159,114.832z M89.321,110.719c3.602,0,6.522,2.92,6.522,6.522
			c0,3.602-2.92,6.522-6.522,6.522c-3.602,0-6.522-2.92-6.522-6.522C82.799,113.639,85.719,110.719,89.321,110.719z"/>
		<path style="fill:#EBEBEB;" d="M102.665,357.92l1.383,1.145l2.448-2.448l-1.145-1.383c0.629-0.958,1.089-2.037,1.329-3.198
			l1.783-0.168v-3.462l-1.782-0.168c-0.241-1.161-0.701-2.239-1.329-3.197l1.145-1.383l-2.448-2.448l-1.383,1.145
			c-0.958-0.629-2.037-1.089-3.198-1.329l-0.168-1.783l-3.462,0.001l-0.168,1.782c-1.161,0.241-2.24,0.701-3.198,1.329l-1.383-1.145
			l-2.448,2.448l1.145,1.383c-0.629,0.958-1.089,2.037-1.329,3.197l-1.782,0.168v3.462l1.782,0.168
			c0.241,1.16,0.701,2.239,1.329,3.198l-1.145,1.383l2.448,2.448l1.383-1.145c0.958,0.629,2.037,1.089,3.198,1.329l0.168,1.782H99.3
			l0.168-1.783C100.628,359.009,101.707,358.549,102.665,357.92z M92.883,350.138c0-2.588,2.098-4.686,4.686-4.686
			c2.588,0,4.686,2.098,4.686,4.686c0,2.588-2.098,4.686-4.686,4.686C94.981,354.824,92.883,352.726,92.883,350.138z"/>
		<path style="fill:#EBEBEB;" d="M408.007,116.371l1.383,1.145l2.448-2.448l-1.145-1.383c0.629-0.958,1.089-2.037,1.329-3.197
			l1.783-0.168v-3.462l-1.782-0.168c-0.241-1.161-0.701-2.239-1.329-3.197l1.145-1.383l-2.448-2.448l-1.383,1.145
			c-0.958-0.629-2.037-1.089-3.198-1.329l-0.168-1.783l-3.462,0.001l-0.168,1.782c-1.161,0.241-2.24,0.701-3.198,1.329l-1.383-1.145
			l-2.448,2.448l1.145,1.383c-0.629,0.958-1.089,2.037-1.33,3.197l-1.782,0.168v3.462l1.782,0.168
			c0.241,1.16,0.701,2.239,1.33,3.197l-1.145,1.383l2.448,2.448l1.383-1.145c0.958,0.629,2.037,1.089,3.198,1.329l0.168,1.782h3.462
			l0.168-1.783C405.97,117.46,407.049,117,408.007,116.371z M398.225,108.589c0-2.588,2.098-4.686,4.686-4.686
			c2.588,0,4.686,2.098,4.686,4.686c0,2.588-2.098,4.686-4.686,4.686C400.323,113.275,398.225,111.177,398.225,108.589z"/>
		<path style="fill:#EBEBEB;" d="M70.41,261.018l1.383,1.145l2.448-2.448l-1.145-1.383c0.629-0.958,1.089-2.037,1.329-3.197
			l1.783-0.168v-3.462l-1.782-0.168c-0.241-1.16-0.701-2.239-1.329-3.197l1.145-1.383l-2.448-2.448l-1.383,1.145
			c-0.958-0.629-2.037-1.089-3.198-1.329l-0.168-1.783l-3.462,0.001l-0.168,1.782c-1.161,0.241-2.24,0.701-3.198,1.329l-1.383-1.145
			l-2.448,2.448l1.145,1.383c-0.629,0.958-1.089,2.037-1.33,3.197l-1.782,0.168v3.462l1.782,0.168
			c0.241,1.16,0.701,2.239,1.33,3.197l-1.145,1.383l2.448,2.448l1.383-1.145c0.958,0.629,2.037,1.089,3.198,1.329l0.168,1.782h3.462
			l0.168-1.783C68.373,262.107,69.452,261.647,70.41,261.018z M60.628,253.236c0-2.588,2.098-4.686,4.686-4.686
			c2.588,0,4.686,2.098,4.686,4.686c0,2.588-2.098,4.686-4.686,4.686C62.726,257.923,60.628,255.825,60.628,253.236z"/>
		<path style="fill:#EBEBEB;" d="M264.447,122.443l-1.788,0.168l0,3.462l1.787,0.168c0.233,1.122,0.671,2.211,1.321,3.201
			l-1.142,1.379l2.448,2.448l1.379-1.142c0.991,0.65,2.079,1.088,3.201,1.321l0.168,1.787l3.462,0l0.168-1.787
			c1.122-0.233,2.21-0.671,3.201-1.321l1.379,1.142l2.447-2.448l-1.141-1.379c0.65-0.991,1.088-2.079,1.321-3.201l1.788-0.168
			l0-3.462l-1.788-0.168c-0.232-1.122-0.67-2.21-1.321-3.201l1.141-1.379l-2.448-2.448l-1.379,1.142
			c-0.991-0.65-2.079-1.088-3.201-1.321l-0.168-1.787l-3.462,0l-0.168,1.788c-1.122,0.233-2.21,0.671-3.201,1.321l-1.379-1.142
			l-2.448,2.448l1.142,1.379C265.118,120.233,264.68,121.321,264.447,122.443z M276.867,121.029c1.83,1.83,1.83,4.797,0,6.627
			c-1.83,1.83-4.797,1.83-6.627,0c-1.83-1.83-1.83-4.797,0-6.627C272.07,119.199,275.037,119.199,276.867,121.029z"/>
		<path style="fill:#EBEBEB;" d="M126.296,384.19c1.381-0.286,2.666-0.834,3.807-1.583l1.646,1.363l2.914-2.914l-1.363-1.647
			c0.749-1.14,1.296-2.425,1.583-3.806l2.122-0.2v-4.121l-2.122-0.2c-0.286-1.382-0.834-2.666-1.583-3.807l1.363-1.647l-2.914-2.914
			l-1.646,1.363c-1.141-0.749-2.425-1.296-3.807-1.583l-0.2-2.122h-4.121l-0.2,2.122c-1.382,0.286-2.666,0.834-3.807,1.583
			l-1.646-1.363l-2.914,2.914l1.363,1.647c-0.748,1.141-1.296,2.425-1.582,3.807l-2.122,0.2v4.121l2.122,0.2
			c0.286,1.382,0.834,2.666,1.582,3.807l-1.363,1.647l2.914,2.914l1.646-1.363c1.141,0.749,2.425,1.296,3.807,1.583l0.2,2.122h4.121
			L126.296,384.19z M118.456,373.342c0-3.081,2.498-5.579,5.579-5.579c3.082,0,5.579,2.498,5.579,5.579
			c0,3.082-2.498,5.579-5.579,5.579C120.954,378.921,118.456,376.424,118.456,373.342z"/>
		<path style="fill:#EBEBEB;" d="M348.357,360.928c-1.019,1.552-1.704,3.256-2.069,5.014l-2.8,0.264l0,5.423l2.801,0.264
			c0.365,1.757,1.05,3.462,2.069,5.014l-1.788,2.16l3.835,3.834l2.16-1.788c1.552,1.019,3.257,1.704,5.014,2.069l0.264,2.8l5.423,0
			l0.264-2.8c1.758-0.365,3.462-1.051,5.014-2.069l2.16,1.788l3.835-3.835l-1.788-2.16c1.019-1.552,1.704-3.256,2.069-5.014
			l2.8-0.264l0-5.423l-2.8-0.264c-0.365-1.758-1.051-3.462-2.069-5.014l1.788-2.16l-3.835-3.835l-2.16,1.789
			c-1.552-1.019-3.257-1.705-5.014-2.07l-0.264-2.8l-5.423,0l-0.264,2.8c-1.758,0.365-3.462,1.05-5.014,2.069l-2.16-1.788
			l-3.835,3.835L348.357,360.928z M365.744,363.727c2.867,2.867,2.867,7.515,0,10.382c-2.867,2.867-7.515,2.867-10.382,0
			c-2.867-2.867-2.867-7.515,0-10.382C358.229,360.86,362.877,360.86,365.744,363.727z"/>
		<path style="fill:#EBEBEB;" d="M285.804,100.6c-1.019,1.552-1.704,3.256-2.069,5.014l-2.8,0.264l0,5.423l2.801,0.264
			c0.365,1.758,1.05,3.462,2.069,5.014l-1.789,2.16l3.835,3.835l2.16-1.788c1.552,1.019,3.257,1.704,5.014,2.069l0.264,2.8l5.423,0
			l0.264-2.8c1.758-0.365,3.462-1.051,5.014-2.069l2.16,1.788l3.835-3.835l-1.788-2.16c1.019-1.552,1.704-3.256,2.069-5.014
			l2.8-0.264l0-5.423l-2.8-0.264c-0.365-1.758-1.051-3.462-2.069-5.014l1.789-2.16l-3.835-3.835l-2.16,1.788
			c-1.552-1.019-3.257-1.705-5.014-2.07l-0.264-2.8l-5.423,0l-0.264,2.8c-1.758,0.365-3.462,1.05-5.014,2.069l-2.16-1.788
			l-3.835,3.835L285.804,100.6z M303.191,103.398c2.867,2.867,2.867,7.515,0,10.382c-2.867,2.867-7.515,2.867-10.382,0
			c-2.867-2.867-2.867-7.515,0-10.382C295.676,100.532,300.324,100.531,303.191,103.398z"/>
	</g>
</g>
<g id="Background_Simple" style="display:none;">
	<g style="display:inline;">
		<path style="fill:#407BFF;" d="M250.019,98.253c-77.951,35.072-7.188,97.579-52.197,131.622
			c-45.009,34.042-167.382-5.313-120.732,83.088c54.797,103.839,294.759,89.419,346.498-37.946S327.97,63.181,250.019,98.253z"/>
		<path style="opacity:0.9;fill:#FFFFFF;" d="M250.019,98.253c-77.951,35.072-7.188,97.579-52.197,131.622
			c-45.009,34.042-167.382-5.313-120.732,83.088c54.797,103.839,294.759,89.419,346.498-37.946S327.97,63.181,250.019,98.253z"/>
	</g>
</g>
<g id="Shadow_1_">
	<ellipse id="_x3C_Path_x3E__359_" style="fill:#F5F5F5;" cx="250" cy="416.238" rx="193.889" ry="11.323"/>
</g>
<g id="Plant">
	<g>
		<path style="fill:none;stroke:#407BFF;stroke-width:0.5;stroke-linecap:round;stroke-linejoin:round;stroke-miterlimit:10;" d="
			M96.191,310.745c0,0-0.445,0.954-1.329,1.286"/>
		<path style="fill:none;stroke:#407BFF;stroke-width:0.5;stroke-linecap:round;stroke-linejoin:round;stroke-miterlimit:10;" d="
			M88.965,306.064c0,0,1.269,1.957,0.418,2.553"/>
		
			<line style="fill:none;stroke:#407BFF;stroke-width:0.5;stroke-linecap:round;stroke-linejoin:round;stroke-miterlimit:10;" x1="81.723" y1="305.723" x2="82.319" y2="308.34"/>
		<g>
			<path style="fill:#407BFF;" d="M95.912,371.35c0,0,7.753-9.228,12.715-4.924c4.962,4.304,2.452,13.433-3.271,13.727
				c-5.723,0.294-9.445-2.885-9.445-2.885V371.35z"/>
			<path style="opacity:0.4;fill:#FFFFFF;enable-background:new    ;" d="M95.912,371.35c0,0,7.753-9.228,12.715-4.924
				c4.962,4.304,2.452,13.433-3.271,13.727c-5.723,0.294-9.445-2.885-9.445-2.885V371.35z"/>
			<path style="fill:#407BFF;" d="M64.279,347.947c0,0-6.513-6.822-10.544-5.665c-4.032,1.157-3.612,17.455,8.893,10.856
				L64.279,347.947z"/>
			<path style="opacity:0.5;fill:#FFFFFF;enable-background:new    ;" d="M64.279,347.947c0,0-6.513-6.822-10.544-5.665
				c-4.032,1.157-3.612,17.455,8.893,10.856L64.279,347.947z"/>
			<path style="fill:#407BFF;" d="M87.538,398.84c0,0,21.398-29.274,4.032-35.205s-20.468,23.553-15.506,31.76
				C81.026,403.603,87.538,398.84,87.538,398.84z"/>
			<path style="fill:#407BFF;" d="M77.614,338.906c0,0-13.274-30.82,6.388-31.751c19.662-0.93,21.804,30.56-0.821,35.128
				L77.614,338.906z"/>
			<path style="opacity:0.5;fill:#FFFFFF;enable-background:new    ;" d="M87.538,398.84c0,0,21.398-29.274,4.032-35.205
				s-20.468,23.553-15.506,31.76C81.026,403.603,87.538,398.84,87.538,398.84z"/>
			<path style="opacity:0.5;fill:#FFFFFF;enable-background:new    ;" d="M77.614,338.906c0,0-13.274-30.82,6.388-31.751
				c19.662-0.93,21.804,30.56-0.821,35.128L77.614,338.906z"/>
			<path style="fill:#407BFF;" d="M82.324,364.14c0,0,6.455-27.213-5.95-29.384c-12.405-2.171-24.65,22.417,1.01,34.778
				C77.384,369.534,81.786,366.803,82.324,364.14z"/>
			<path style="opacity:0.4;fill:#FFFFFF;enable-background:new    ;" d="M82.324,364.14c0,0,6.455-27.213-5.95-29.384
				c-12.405-2.171-24.65,22.417,1.01,34.778C77.384,369.534,81.786,366.803,82.324,364.14z"/>
		</g>
		<g>
			<polygon style="fill:#263238;" points="102.942,394.689 67.014,394.689 70.014,417.675 99.942,417.675 			"/>
		</g>
		<g style="opacity:0.2;">
			<path d="M84.255,336.703c0.852-0.781,1.641-1.625,2.382-2.507c0.759-0.864,1.469-1.772,2.125-2.714
				c1.319-1.878,2.461-3.88,3.288-6.011c0.877-2.117,1.295-4.391,1.402-6.666v-1.716c-0.06-0.568-0.156-1.133-0.229-1.702
				c-0.038-0.284-0.065-0.572-0.113-0.855l-0.228-0.831l-0.458-1.67c0.811,2.149,1.498,4.427,1.414,6.781
				c-0.028,2.329-0.462,4.668-1.321,6.841c-0.883,2.161-2.042,4.203-3.445,6.056C87.666,333.558,86.066,335.263,84.255,336.703z"/>
		</g>
		<g style="opacity:0.2;">
			<path d="M88.965,310.255c-2.14,0.693-4.065,1.928-5.663,3.46c-1.601,1.536-2.851,3.411-3.694,5.458l-0.577,1.559
				c-0.175,0.525-0.268,1.076-0.407,1.614c-0.322,1.07-0.324,2.197-0.506,3.297c-0.086,1.11-0.065,2.231-0.098,3.35l0.213,3.36
				l-0.458-3.348c-0.019-1.126-0.082-2.258-0.042-3.388l0.16-1.692c0.033-0.568,0.152-1.123,0.285-1.676
				c0.134-0.552,0.223-1.116,0.395-1.658l0.572-1.61c0.903-2.088,2.193-4.031,3.896-5.548c0.829-0.78,1.791-1.403,2.767-1.972
				C86.819,310.947,87.867,310.505,88.965,310.255z"/>
		</g>
		<g style="opacity:0.2;">
			<path d="M73.928,336.703c-1.384,0.626-2.594,1.588-3.6,2.7c-1.018,1.106-1.827,2.395-2.387,3.782
				c-1.08,2.767-1.549,5.904-0.594,8.751c0.373,1.448,1.068,2.796,1.771,4.12c0.774,1.291,1.609,2.548,2.542,3.738
				c0.913,1.204,1.911,2.344,2.951,3.446c1.028,1.113,2.106,2.183,3.245,3.187c-2.378-1.89-4.576-4.022-6.497-6.394
				c-1.918-2.362-3.604-4.989-4.491-7.957c-0.26-0.729-0.33-1.508-0.46-2.27c-0.055-0.383-0.018-0.776-0.03-1.163
				c-0.003-0.389-0.013-0.778,0.057-1.157c0.135-1.531,0.543-3.041,1.155-4.45C68.812,340.217,71.096,337.835,73.928,336.703z"/>
		</g>
		<g style="opacity:0.2;">
			<path d="M77.615,338.906c-0.439,2.067-0.726,4.166-0.803,6.261c-0.033,1.047-0.006,2.096,0.141,3.122
				c0.138,1.024,0.421,2.041,0.964,2.887c0.566,0.886,1.054,1.911,1.304,2.951c0.261,1.045,0.397,2.111,0.443,3.176
				c0.096,2.131-0.1,4.256-0.499,6.334c0.123-1.05,0.177-2.106,0.193-3.159c0.026-1.052,0.019-2.106-0.078-3.15
				c-0.175-2.083-0.573-4.176-1.786-5.886c-0.586-0.947-0.862-2.026-0.991-3.09c-0.13-1.067-0.168-2.142-0.074-3.204
				C76.575,343.021,76.997,340.929,77.615,338.906z"/>
		</g>
		<g style="opacity:0.2;">
			<path d="M86.343,366.427c-0.516,0.228-0.872,0.681-1.18,1.129c-0.314,0.452-0.549,0.954-0.781,1.452
				c-0.452,1.005-0.814,2.051-1.131,3.11c-0.631,2.119-1.156,4.272-1.589,6.445c-0.473,2.165-0.851,4.35-1.218,6.537
				c-0.185,1.093-0.355,2.19-0.509,3.288c-0.166,1.097-0.326,2.196-0.412,3.304c0.018-2.226,0.258-4.443,0.54-6.649
				c0.289-2.206,0.672-4.399,1.109-6.583c0.476-2.175,0.997-4.345,1.713-6.46c0.365-1.055,0.769-2.099,1.276-3.098
				c0.273-0.489,0.548-0.98,0.902-1.418C85.411,367.051,85.81,366.616,86.343,366.427z"/>
		</g>
		<g style="opacity:0.2;">
			<path d="M92.423,367.371c0.855,1.892,1.349,3.944,1.585,6.016c0.233,2.077,0.117,4.193-0.286,6.248
				c-0.433,2.045-1.144,4.053-2.243,5.835c-0.492,0.926-1.157,1.736-1.787,2.565c-0.299,0.427-0.699,0.771-1.055,1.148l-1.099,1.101
				c1.348-1.574,2.676-3.164,3.606-5.003c0.521-0.886,0.893-1.842,1.284-2.788c0.184-0.477,0.3-0.978,0.454-1.465
				c0.164-0.486,0.264-0.987,0.351-1.492c0.433-1.999,0.541-4.066,0.394-6.114C93.472,371.375,93.084,369.334,92.423,367.371z"/>
		</g>
		<g style="opacity:0.2;">
			<path d="M59.228,351.271c-0.571,0.139-1.165,0.148-1.752,0.097c-0.59-0.049-1.172-0.202-1.727-0.428
				c-0.553-0.232-1.064-0.577-1.484-1.006c-0.434-0.419-0.726-0.958-0.919-1.505c0.377,0.45,0.724,0.89,1.176,1.219
				c0.444,0.328,0.908,0.627,1.423,0.832C56.966,350.914,58.074,351.135,59.228,351.271z"/>
		</g>
		<g style="opacity:0.2;">
			<path d="M60.558,346.773c-0.492-0.329-0.983-0.637-1.488-0.905c-0.51-0.257-1.02-0.509-1.559-0.649
				c-0.534-0.154-1.082-0.21-1.632-0.167c-0.554,0.054-1.071,0.288-1.601,0.558c0.4-0.432,0.922-0.792,1.533-0.936
				c0.606-0.147,1.246-0.096,1.837,0.065c0.592,0.168,1.136,0.454,1.623,0.804C59.757,345.893,60.206,346.292,60.558,346.773z"/>
		</g>
		<g style="opacity:0.2;">
			<path d="M99.454,372.728c0.438-0.712,0.98-1.355,1.572-1.95c0.592-0.596,1.264-1.12,2.002-1.547
				c0.735-0.418,1.578-0.742,2.462-0.712c0.882,0.007,1.714,0.408,2.285,1.015c-0.709-0.448-1.491-0.698-2.274-0.631
				c-0.782,0.057-1.537,0.359-2.227,0.763C101.873,370.462,100.646,371.572,99.454,372.728z"/>
		</g>
		<g style="opacity:0.2;">
			<path d="M99.454,377.268c1.957,0.101,3.909,0.124,5.8-0.189c0.946-0.141,1.864-0.436,2.671-0.907
				c0.808-0.474,1.426-1.239,1.725-2.186c-0.085,0.481-0.193,0.976-0.471,1.409c-0.103,0.239-0.298,0.406-0.467,0.597
				c-0.163,0.202-0.361,0.359-0.574,0.5c-0.829,0.594-1.818,0.921-2.8,1.079c-0.986,0.156-1.982,0.203-2.969,0.142
				C101.385,377.655,100.405,377.521,99.454,377.268z"/>
		</g>
		<path style="fill:none;stroke:#407BFF;stroke-width:0.5;stroke-linecap:round;stroke-linejoin:round;stroke-miterlimit:10;" d="
			M77.383,304.183c0,0,0.638,2.945,2.808,5.243"/>
		<path style="fill:none;stroke:#407BFF;stroke-width:0.5;stroke-linecap:round;stroke-linejoin:round;stroke-miterlimit:10;" d="
			M76.106,315.596c0,0-2.468-1.106-4.425-0.511"/>
		
			<line style="fill:none;stroke:#407BFF;stroke-width:0.5;stroke-linecap:round;stroke-linejoin:round;stroke-miterlimit:10;" x1="74.319" y1="320.532" x2="71.681" y2="321.723"/>
		
			<line style="fill:none;stroke:#407BFF;stroke-width:0.5;stroke-linecap:round;stroke-linejoin:round;stroke-miterlimit:10;" x1="74.745" y1="327" x2="71.681" y2="327.426"/>
		<path style="fill:none;stroke:#407BFF;stroke-width:0.5;stroke-linecap:round;stroke-linejoin:round;stroke-miterlimit:10;" d="
			M86.147,308.617c0,0-0.12-2.809,0.196-3.66"/>
		<path style="fill:none;stroke:#407BFF;stroke-width:0.5;stroke-linecap:round;stroke-linejoin:round;stroke-miterlimit:10;" d="
			M93.043,306.787c0,0,0.17,2.426-0.766,3.106"/>
		<path style="fill:none;stroke:#407BFF;stroke-width:0.5;stroke-linecap:round;stroke-linejoin:round;stroke-miterlimit:10;" d="
			M99.454,312.957c0,0-2.922,1.191-3.858,1.191"/>
		<path style="fill:none;stroke:#407BFF;stroke-width:0.5;stroke-linecap:round;stroke-linejoin:round;stroke-miterlimit:10;" d="
			M101.522,322.745c0,0-2.835-0.681-3.998-0.681"/>
		<path style="fill:none;stroke:#407BFF;stroke-width:0.5;stroke-linecap:round;stroke-linejoin:round;stroke-miterlimit:10;" d="
			M98.366,332.354c0,0-0.643-0.163-2.175-1.014"/>
		<path style="fill:none;stroke:#407BFF;stroke-width:0.5;stroke-linecap:round;stroke-linejoin:round;stroke-miterlimit:10;" d="
			M93.675,339.431c0,0-0.122-1.623-2.165-2.133"/>
		<path style="fill:none;stroke:#407BFF;stroke-width:0.5;stroke-linecap:round;stroke-linejoin:round;stroke-miterlimit:10;" d="
			M88.411,343c0,0-1.447-1.106-2.067-2.213"/>
		<path style="fill:none;stroke:#407BFF;stroke-width:0.5;stroke-linecap:round;stroke-linejoin:round;stroke-miterlimit:10;" d="
			M89.383,314.149c0,0-1.033,1.277-2.006,1.447"/>
		<path style="fill:none;stroke:#407BFF;stroke-width:0.5;stroke-linecap:round;stroke-linejoin:round;stroke-miterlimit:10;" d="
			M85.383,319.426c0,0,2.249-0.681,2.997,0"/>
		<path style="fill:none;stroke:#407BFF;stroke-width:0.5;stroke-linecap:round;stroke-linejoin:round;stroke-miterlimit:10;" d="
			M87.377,324.367c0,0-2.286-0.941-3.374-1.622"/>
		<path style="fill:none;stroke:#407BFF;stroke-width:0.5;stroke-linecap:round;stroke-linejoin:round;stroke-miterlimit:10;" d="
			M81.723,328.957c0,0,2.894-0.426,3.064-1.532"/>
		<path style="fill:none;stroke:#407BFF;stroke-width:0.5;stroke-linecap:round;stroke-linejoin:round;stroke-miterlimit:10;" d="
			M82.66,334.621c0,0-1.191-1.508-1.447-2.267"/>
		<path style="fill:none;stroke:#407BFF;stroke-width:0.5;stroke-linecap:round;stroke-linejoin:round;stroke-miterlimit:10;" d="
			M79.525,312.957c0,0-0.346-1.532-1.67-1.787"/>
		<path style="fill:none;stroke:#407BFF;stroke-width:0.5;stroke-linecap:round;stroke-linejoin:round;stroke-miterlimit:10;" d="
			M77.043,318.149c-0.511-0.17-0.944,0.285-2.298-0.34"/>
		<path style="fill:none;stroke:#407BFF;stroke-width:0.5;stroke-linecap:round;stroke-linejoin:round;stroke-miterlimit:10;" d="
			M76.587,323.556c0,0-1.161,0.646-1.842,0.811"/>
		
			<line style="fill:none;stroke:#407BFF;stroke-width:0.5;stroke-linecap:round;stroke-linejoin:round;stroke-miterlimit:10;" x1="76.587" y1="330.909" x2="73.894" y2="331.847"/>
		<path style="fill:none;stroke:#407BFF;stroke-width:0.5;stroke-linecap:round;stroke-linejoin:round;stroke-miterlimit:10;" d="
			M87.851,336.703c0.681,0.85,1.532,2.202,1.532,2.202"/>
		<path style="fill:none;stroke:#407BFF;stroke-width:0.5;stroke-linecap:round;stroke-linejoin:round;stroke-miterlimit:10;" d="
			M91.511,332.352c0.936,0.094,2.165,0.605,2.165,0.605"/>
		<path style="fill:none;stroke:#407BFF;stroke-width:0.5;stroke-linecap:round;stroke-linejoin:round;stroke-miterlimit:10;" d="
			M94.863,325.979c0,0,1.414-0.154,1.754,0.519"/>
		<path style="fill:none;stroke:#407BFF;stroke-width:0.5;stroke-linecap:round;stroke-linejoin:round;stroke-miterlimit:10;" d="
			M95.596,318.489c0,0,1.153,0.005,1.683-0.338"/>
		<path style="fill:none;stroke:#407BFF;stroke-width:0.5;stroke-linecap:round;stroke-linejoin:round;stroke-miterlimit:10;" d="
			M70.916,334.148c0.247,0.461,0.447,0.946,0.595,1.447"/>
		<path style="fill:none;stroke:#407BFF;stroke-width:0.5;stroke-linecap:round;stroke-linejoin:round;stroke-miterlimit:10;" d="
			M65.314,336.351c0.674,1.029,1.465,1.982,2.353,2.834"/>
		<path style="fill:none;stroke:#407BFF;stroke-width:0.5;stroke-linecap:round;stroke-linejoin:round;stroke-miterlimit:10;" d="
			M62.928,340.855c0.67,0.525,1.339,1.05,2.009,1.575"/>
		<path style="fill:none;stroke:#407BFF;stroke-width:0.5;stroke-linecap:round;stroke-linejoin:round;stroke-miterlimit:10;" d="
			M61.398,355.289c0.796,0.235,1.691,0.107,2.389-0.341"/>
		<path style="fill:none;stroke:#407BFF;stroke-width:0.5;stroke-linecap:round;stroke-linejoin:round;stroke-miterlimit:10;" d="
			M63.622,360.145c0.565-0.392,1.074-0.864,1.507-1.398"/>
		<path style="fill:none;stroke:#407BFF;stroke-width:0.5;stroke-linecap:round;stroke-linejoin:round;stroke-miterlimit:10;" d="
			M67.034,364.043c0.373-0.594,0.726-1.199,1.059-1.816"/>
		<path style="fill:none;stroke:#407BFF;stroke-width:0.5;stroke-linecap:round;stroke-linejoin:round;stroke-miterlimit:10;" d="
			M69.357,366.122c0.58-0.59,1.09-1.247,1.518-1.954"/>
		<path style="fill:none;stroke:#407BFF;stroke-width:0.5;stroke-linecap:round;stroke-linejoin:round;stroke-miterlimit:10;" d="
			M74.905,369.642c-0.334-0.771-0.347-1.676-0.034-2.456"/>
		<path style="fill:none;stroke:#407BFF;stroke-width:0.5;stroke-linecap:round;stroke-linejoin:round;stroke-miterlimit:10;" d="
			M84.96,361.223c-1.045,0.316-2.157,0.408-3.24,0.269"/>
		<path style="fill:none;stroke:#407BFF;stroke-width:0.5;stroke-linecap:round;stroke-linejoin:round;stroke-miterlimit:10;" d="
			M84.368,357.244c-0.825,0.163-1.691,0.109-2.49-0.155"/>
		<path style="fill:none;stroke:#407BFF;stroke-width:0.5;stroke-linecap:round;stroke-linejoin:round;stroke-miterlimit:10;" d="
			M84.778,352.894c-0.624-0.255-1.249-0.51-1.873-0.764"/>
		<path style="fill:none;stroke:#407BFF;stroke-width:0.5;stroke-linecap:round;stroke-linejoin:round;stroke-miterlimit:10;" d="
			M84.787,348.447c-0.596,0-1.191,0-1.787,0"/>
		<path style="fill:none;stroke:#407BFF;stroke-width:0.5;stroke-linecap:round;stroke-linejoin:round;stroke-miterlimit:10;" d="
			M84.447,344.957c-0.567,0-1.135,0-1.702,0"/>
		<path style="fill:none;stroke:#407BFF;stroke-width:0.5;stroke-linecap:round;stroke-linejoin:round;stroke-miterlimit:10;" d="
			M81.788,339.065c-0.641,0.664-1.282,1.327-1.923,1.991"/>
		<path style="fill:none;stroke:#407BFF;stroke-width:0.5;stroke-linecap:round;stroke-linejoin:round;stroke-miterlimit:10;" d="
			M75.851,334.83c0.026,0.795-0.006,1.591-0.096,2.382"/>
		<path style="fill:none;stroke:#407BFF;stroke-width:0.5;stroke-linecap:round;stroke-linejoin:round;stroke-miterlimit:10;" d="
			M71.297,340.406c0.565,0.578,1.051,1.233,1.44,1.94"/>
		<path style="fill:none;stroke:#407BFF;stroke-width:0.5;stroke-linecap:round;stroke-linejoin:round;stroke-miterlimit:10;" d="
			M69.827,345.927c0.679,0.251,1.386,0.424,2.104,0.515"/>
		<path style="fill:none;stroke:#407BFF;stroke-width:0.5;stroke-linecap:round;stroke-linejoin:round;stroke-miterlimit:10;" d="
			M69.738,351.34c0.04,0.118,0.218,0.065,0.318-0.009c0.509-0.372,1.019-0.744,1.528-1.116"/>
		<path style="fill:none;stroke:#407BFF;stroke-width:0.5;stroke-linecap:round;stroke-linejoin:round;stroke-miterlimit:10;" d="
			M71.543,356.158c0.601-0.383,1.166-0.823,1.683-1.314"/>
		<path style="fill:none;stroke:#407BFF;stroke-width:0.5;stroke-linecap:round;stroke-linejoin:round;stroke-miterlimit:10;" d="
			M74.187,361.099c0.348-0.573,0.806-1.078,1.342-1.48"/>
		<path style="fill:none;stroke:#407BFF;stroke-width:0.5;stroke-linecap:round;stroke-linejoin:round;stroke-miterlimit:10;" d="
			M76.813,364.031c0.276-0.73,0.346-1.536,0.201-2.302"/>
		<path style="fill:none;stroke:#407BFF;stroke-width:0.5;stroke-linecap:round;stroke-linejoin:round;stroke-miterlimit:10;" d="
			M80.462,345.742c-0.537,0.427-1.075,0.855-1.612,1.282"/>
		<path style="fill:none;stroke:#407BFF;stroke-width:0.5;stroke-linecap:round;stroke-linejoin:round;stroke-miterlimit:10;" d="
			M80.872,350.83c-0.369,0-0.737,0-1.106,0"/>
		<path style="fill:none;stroke:#407BFF;stroke-width:0.5;stroke-linecap:round;stroke-linejoin:round;stroke-miterlimit:10;" d="
			M63.504,345.557c0.385,0.693,0.902,1.311,1.516,1.811"/>
		<path style="fill:none;stroke:#407BFF;stroke-width:0.5;stroke-linecap:round;stroke-linejoin:round;stroke-miterlimit:10;" d="
			M63.069,352.591c0.552-0.347,1.105-0.695,1.658-1.042"/>
		<path style="fill:none;stroke:#407BFF;stroke-width:0.5;stroke-linecap:round;stroke-linejoin:round;stroke-miterlimit:10;" d="
			M61.895,343.681c0.024,0.684-0.034,1.372-0.172,2.043"/>
		<path style="fill:none;stroke:#407BFF;stroke-width:0.5;stroke-linecap:round;stroke-linejoin:round;stroke-miterlimit:10;" d="
			M56.746,341.475c0.124,0.7,0.202,1.409,0.233,2.119"/>
		<path style="fill:none;stroke:#407BFF;stroke-width:0.5;stroke-linecap:round;stroke-linejoin:round;stroke-miterlimit:10;" d="
			M52.619,342.233c0.351,0.561,0.702,1.122,1.053,1.682"/>
		<path style="fill:none;stroke:#407BFF;stroke-width:0.5;stroke-linecap:round;stroke-linejoin:round;stroke-miterlimit:10;" d="
			M50.519,345.524c0.443,0.447,0.955,0.825,1.512,1.118"/>
		<path style="fill:none;stroke:#407BFF;stroke-width:0.5;stroke-linecap:round;stroke-linejoin:round;stroke-miterlimit:10;" d="
			M50.529,353.19c0.487-0.276,1.02-0.466,1.5-0.755c0.48-0.289,0.919-0.707,1.056-1.25"/>
		<path style="fill:none;stroke:#407BFF;stroke-width:0.5;stroke-linecap:round;stroke-linejoin:round;stroke-miterlimit:10;" d="
			M54.226,355.755c0.664-0.403,1.281-0.886,1.831-1.435c0.209-0.209,0.425-0.491,0.332-0.772"/>
		<path style="fill:none;stroke:#407BFF;stroke-width:0.5;stroke-linecap:round;stroke-linejoin:round;stroke-miterlimit:10;" d="
			M59.041,356.197c0.09-0.651,0.077-1.316-0.041-1.963"/>
		<path style="fill:none;stroke:#407BFF;stroke-width:0.5;stroke-linecap:round;stroke-linejoin:round;stroke-miterlimit:10;" d="
			M55.709,346.808c0.43,0.558,0.859,1.115,1.289,1.673"/>
		<path style="fill:none;stroke:#407BFF;stroke-width:0.5;stroke-linecap:round;stroke-linejoin:round;stroke-miterlimit:10;" d="
			M59.2,348.986c0.334-0.346,0.654-0.705,0.959-1.077"/>
		<path style="fill:none;stroke:#407BFF;stroke-width:0.5;stroke-linecap:round;stroke-linejoin:round;stroke-miterlimit:10;" d="
			M90.181,361.541c0.353,0.92,0.483,1.925,0.376,2.904"/>
		<path style="fill:none;stroke:#407BFF;stroke-width:0.5;stroke-linecap:round;stroke-linejoin:round;stroke-miterlimit:10;" d="
			M95.798,363.595c0.017,1.141-0.481,2.279-1.33,3.041"/>
		<path style="fill:none;stroke:#407BFF;stroke-width:0.5;stroke-linecap:round;stroke-linejoin:round;stroke-miterlimit:10;" d="
			M83.756,363.175c0.282,0.62,0.65,1.2,1.09,1.719"/>
		<path style="fill:none;stroke:#407BFF;stroke-width:0.5;stroke-linecap:round;stroke-linejoin:round;stroke-miterlimit:10;" d="
			M74.419,372.996c1.001,0.32,1.989,0.676,2.964,1.068"/>
		<path style="fill:none;stroke:#407BFF;stroke-width:0.5;stroke-linecap:round;stroke-linejoin:round;stroke-miterlimit:10;" d="
			M72.57,378.801c0.725,0.934,2.052,1.35,3.18,0.999"/>
		<path style="fill:none;stroke:#407BFF;stroke-width:0.5;stroke-linecap:round;stroke-linejoin:round;stroke-miterlimit:10;" d="
			M72.782,386.133c0.812-0.263,1.64-0.478,2.478-0.641"/>
		<path style="fill:none;stroke:#407BFF;stroke-width:0.5;stroke-linecap:round;stroke-linejoin:round;stroke-miterlimit:10;" d="
			M73.055,392.473c0.784-0.39,1.568-0.78,2.352-1.169"/>
		<path style="fill:none;stroke:#407BFF;stroke-width:0.5;stroke-linecap:round;stroke-linejoin:round;stroke-miterlimit:10;" d="
			M93.121,393.751c-1.28-0.314-2.514-0.813-3.653-1.475"/>
		<path style="fill:none;stroke:#407BFF;stroke-width:0.5;stroke-linecap:round;stroke-linejoin:round;stroke-miterlimit:10;" d="
			M94.406,390.656c-0.673-0.3-1.335-0.622-1.986-0.967"/>
		<path style="fill:none;stroke:#407BFF;stroke-width:0.5;stroke-linecap:round;stroke-linejoin:round;stroke-miterlimit:10;" d="
			M97.136,385.677c-1.079-0.193-2.158-0.386-3.237-0.578"/>
		<path style="fill:none;stroke:#407BFF;stroke-width:0.5;stroke-linecap:round;stroke-linejoin:round;stroke-miterlimit:10;" d="
			M98.649,381.673c-0.881-0.263-1.733-0.62-2.539-1.062"/>
		<path style="fill:none;stroke:#407BFF;stroke-width:0.5;stroke-linecap:round;stroke-linejoin:round;stroke-miterlimit:10;" d="
			M98.656,365.47c0.514,0.85,0.914,1.768,1.186,2.724"/>
		<path style="fill:none;stroke:#407BFF;stroke-width:0.5;stroke-linecap:round;stroke-linejoin:round;stroke-miterlimit:10;" d="
			M103.938,364.787c0.131,0.796,0.261,1.592,0.392,2.389"/>
		<path style="fill:none;stroke:#407BFF;stroke-width:0.5;stroke-linecap:round;stroke-linejoin:round;stroke-miterlimit:10;" d="
			M111.285,366.089c-0.692,0.838-1.307,1.739-1.834,2.689"/>
		<path style="fill:none;stroke:#407BFF;stroke-width:0.5;stroke-linecap:round;stroke-linejoin:round;stroke-miterlimit:10;" d="
			M112.678,371.654c-0.618,0.655-1.544,1.007-2.441,0.925"/>
		<path style="fill:none;stroke:#407BFF;stroke-width:0.5;stroke-linecap:round;stroke-linejoin:round;stroke-miterlimit:10;" d="
			M110.12,380.769c-1.209-0.517-2.267-1.382-3.014-2.465"/>
		<path style="fill:none;stroke:#407BFF;stroke-width:0.5;stroke-linecap:round;stroke-linejoin:round;stroke-miterlimit:10;" d="
			M102.609,381.81c-0.021-0.908,0.005-1.817,0.075-2.723"/>
		<path style="fill:none;stroke:#407BFF;stroke-width:0.5;stroke-linecap:round;stroke-linejoin:round;stroke-miterlimit:10;" d="
			M102.242,372.958c-0.035,0.545-0.128,1.087-0.278,1.612"/>
		<path style="fill:none;stroke:#407BFF;stroke-width:0.5;stroke-linecap:round;stroke-linejoin:round;stroke-miterlimit:10;" d="
			M106.919,371.595c0.064,0.857-0.292,1.735-0.934,2.305"/>
		<path style="fill:none;stroke:#407BFF;stroke-width:0.5;stroke-linecap:round;stroke-linejoin:round;stroke-miterlimit:10;" d="
			M97.886,373.404c-0.661-0.238-1.341-0.421-2.032-0.547"/>
		<path style="fill:none;stroke:#407BFF;stroke-width:0.5;stroke-linecap:round;stroke-linejoin:round;stroke-miterlimit:10;" d="
			M87.745,367.803c0.547,0.726,1.005,1.519,1.361,2.356"/>
		<path style="fill:none;stroke:#407BFF;stroke-width:0.5;stroke-linecap:round;stroke-linejoin:round;stroke-miterlimit:10;" d="
			M89.583,373.327c-0.745,0.737-1.79,1.162-2.839,1.154"/>
		<path style="fill:none;stroke:#407BFF;stroke-width:0.5;stroke-linecap:round;stroke-linejoin:round;stroke-miterlimit:10;" d="
			M85.262,378.516c0.576,0.479,1.213,0.885,1.89,1.205"/>
		<path style="fill:none;stroke:#407BFF;stroke-width:0.5;stroke-linecap:round;stroke-linejoin:round;stroke-miterlimit:10;" d="
			M87.605,385.051c-1.37,0.358-2.909,0.696-4.132-0.017"/>
		<path style="fill:none;stroke:#407BFF;stroke-width:0.5;stroke-linecap:round;stroke-linejoin:round;stroke-miterlimit:10;" d="
			M83.183,389.567c0.327-0.309,0.69-0.579,1.079-0.805"/>
		<path style="fill:none;stroke:#407BFF;stroke-width:0.5;stroke-linecap:round;stroke-linejoin:round;stroke-miterlimit:10;" d="
			M82.13,393.963c0.5-0.607,1.077-1.15,1.714-1.611"/>
		<path style="fill:none;stroke:#407BFF;stroke-width:0.5;stroke-linecap:round;stroke-linejoin:round;stroke-miterlimit:10;" d="
			M79.923,370.417c0.582,0.603,1.095,1.272,1.526,1.99"/>
		<path style="fill:none;stroke:#407BFF;stroke-width:0.5;stroke-linecap:round;stroke-linejoin:round;stroke-miterlimit:10;" d="
			M78.323,378.303c0.366,0.094,0.733,0.189,1.099,0.283"/>
		<path style="fill:none;stroke:#407BFF;stroke-width:0.5;stroke-linecap:round;stroke-linejoin:round;stroke-miterlimit:10;" d="
			M77.55,383.435c0.458,0.16,0.915,0.319,1.373,0.479"/>
		<path style="fill:none;stroke:#407BFF;stroke-width:0.5;stroke-linecap:round;stroke-linejoin:round;stroke-miterlimit:10;" d="
			M77.276,390.386c0.402-0.478,0.804-0.957,1.205-1.435"/>
	</g>
</g>
<g id="Speech_bubble_1">
	<g>
		<g>
			<path style="fill:#407BFF;" d="M93.191,113.38h32.521c6.176,0,11.183,5.006,11.183,11.183v13.495
				c0,6.176-5.007,11.182-11.182,11.182h-5.478l-1.298,8.029l-6.223-8.029H93.19c-6.175,0-11.182-5.007-11.182-11.182v-13.495
				C82.008,118.386,87.015,113.38,93.191,113.38z"/>
		</g>
		<g style="opacity:0.3;">
			<path d="M93.191,113.38h32.521c6.176,0,11.183,5.006,11.183,11.183v13.495c0,6.176-5.007,11.182-11.182,11.182h-5.478
				l-1.298,8.029l-6.223-8.029H93.19c-6.175,0-11.182-5.007-11.182-11.182v-13.495C82.008,118.386,87.015,113.38,93.191,113.38z"/>
		</g>
		<g>
			<path style="fill:#FFFFFF;" d="M122.124,130.538c0,1.247,1.011,2.259,2.259,2.259c1.247,0,2.259-1.011,2.259-2.259
				c0-1.247-1.011-2.259-2.259-2.259C123.135,128.279,122.124,129.29,122.124,130.538z"/>
			<path style="fill:#FFFFFF;" d="M112.17,130.538c0,1.247,1.011,2.259,2.259,2.259c1.248,0,2.259-1.011,2.259-2.259
				c0-1.247-1.011-2.259-2.259-2.259C113.181,128.279,112.17,129.29,112.17,130.538z"/>
			<path style="fill:#FFFFFF;" d="M102.216,130.538c0,1.247,1.011,2.259,2.259,2.259c1.247,0,2.259-1.011,2.259-2.259
				c0-1.247-1.011-2.259-2.259-2.259C103.227,128.279,102.216,129.29,102.216,130.538z"/>
			<path style="fill:#FFFFFF;" d="M92.262,130.538c0,1.247,1.011,2.259,2.259,2.259c1.248,0,2.259-1.011,2.259-2.259
				c0-1.247-1.011-2.259-2.259-2.259C93.273,128.279,92.262,129.29,92.262,130.538z"/>
		</g>
	</g>
</g>
<g id="Display">
	<g>
		<g>
			<path style="fill:#263238;" d="M270.118,413.063v3.771c0,0.47-0.382,0.842-0.852,0.842H162.801c-3.937,0-6.62-3.976-5.151-7.619
				l33.739-83.558l54.521,0.372l-1.861,10.842l-12.026,70.171c-0.392,2.262,1.352,4.339,3.653,4.339h33.592
				C269.736,412.22,270.118,412.592,270.118,413.063z"/>
			<path style="opacity:0.6;fill:#FFFFFF;" d="M270.118,413.063v3.771c0,0.47-0.382,0.842-0.852,0.842H162.801
				c-3.937,0-6.62-3.976-5.151-7.619l20.919-51.798l12.82-31.76l54.521,0.372l-1.861,10.842l-5.23,30.517l-6.797,39.654
				c-0.392,2.262,1.352,4.339,3.653,4.339h33.592C269.736,412.22,270.118,412.592,270.118,413.063z"/>
			<path style="opacity:0.4;fill:#FFFFFF;enable-background:new    ;" d="M235.674,412.22h-69.271c-1.733,0-2.909-1.763-2.244-3.363
				l29.579-71.146h50.309l-12.026,70.171C231.63,410.144,233.373,412.22,235.674,412.22z"/>
			<polygon style="opacity:0.1;enable-background:new    ;" points="245.909,326.87 244.048,337.711 238.818,368.228 
				178.568,358.258 191.388,326.498 			"/>
		</g>
		<g>
			<g>
				<path style="fill:#263238;" d="M351.928,171.105h-5.35H104.866h-5.35c-3.567,0-6.459,2.892-6.459,6.459v170.879
					c0,3.567,2.892,6.459,6.459,6.459h5.35h241.712h5.35c3.567,0,6.459-2.892,6.459-6.459V177.565
					C358.387,173.997,355.495,171.105,351.928,171.105z"/>
				<path style="opacity:0.8;fill:#FFFFFF;" d="M351.928,171.105h-5.35H104.866h-5.35c-3.567,0-6.459,2.892-6.459,6.459v170.879
					c0,3.567,2.892,6.459,6.459,6.459h5.35h241.712h5.35c3.567,0,6.459-2.892,6.459-6.459V177.565
					C358.387,173.997,355.495,171.105,351.928,171.105z"/>
				<path style="opacity:0.2;enable-background:new    ;" d="M104.864,354.898h-5.35c-3.563,0-6.452-2.889-6.452-6.452V177.568
					c0-3.574,2.889-6.463,6.452-6.463h5.35c-3.563,0-6.452,2.889-6.452,6.463v170.879C98.411,352.009,101.3,354.898,104.864,354.898
					z"/>
			</g>
		</g>
		<g>
			<rect x="104.235" y="176.655" style="fill:#407BFF;" width="248.335" height="164.776"/>
		</g>
		<g>
			<path style="opacity:0.1;fill:#FFFFFF;" d="M326.685,177.429c-34.336,34.4-122.526,110.959-222.453,105.299V177.429H326.685z"/>
			<path style="opacity:0.1;fill:#FFFFFF;" d="M352.568,240.655v101.554H203.057c5.735-20.512,17.195-48.599,39.429-68.673
				C282.483,237.423,328.899,237.53,352.568,240.655z"/>
		</g>
		<g>
			<polygon style="opacity:0.3;" points="274.256,249.326 261.799,236.869 249.342,249.326 253.236,249.326 253.236,318.76 
				270.363,318.76 270.363,249.326 			"/>
			<g>
				<rect x="292.891" y="241.141" style="opacity:0.3;" width="13.016" height="4.982"/>
				<polygon style="opacity:0.3;" points="292.891,239.786 305.906,239.786 305.906,221.192 308.865,221.192 299.398,211.725 
					289.932,221.192 292.891,221.192 				"/>
				<rect x="292.891" y="248.115" style="opacity:0.3;" width="13.016" height="3.612"/>
				<rect x="292.891" y="255.962" style="opacity:0.3;" width="13.016" height="1.868"/>
			</g>
			<g>
				<rect x="219.273" y="225.451" style="opacity:0.3;" width="13.016" height="4.982"/>
				<polygon style="opacity:0.3;" points="219.273,224.097 232.289,224.097 232.289,205.502 235.248,205.502 225.781,196.036 
					216.314,205.502 219.273,205.502 				"/>
				<rect x="219.273" y="232.426" style="opacity:0.3;" width="13.016" height="3.612"/>
				<rect x="219.273" y="240.273" style="opacity:0.3;" width="13.016" height="1.868"/>
			</g>
			<g>
				<rect x="312.699" y="323.755" style="opacity:0.3;" width="13.016" height="4.982"/>
				<polygon style="opacity:0.3;" points="312.699,322.401 325.714,322.401 325.714,303.806 328.673,303.806 319.207,294.34 
					309.74,303.806 312.699,303.806 				"/>
				<rect x="312.699" y="330.73" style="opacity:0.3;" width="13.016" height="3.612"/>
				<rect x="312.699" y="338.577" style="opacity:0.3;" width="13.016" height="1.868"/>
			</g>
			<g>
				
					<ellipse transform="matrix(0.5257 -0.8507 0.8507 0.5257 -137.4082 368.5352)" style="fill:#407BFF;" cx="261.799" cy="307.496" rx="22.227" ry="22.227"/>
				
					<ellipse transform="matrix(0.5257 -0.8507 0.8507 0.5257 -137.4082 368.5352)" style="opacity:0.1;" cx="261.799" cy="307.496" rx="22.227" ry="22.227"/>
				<circle style="opacity:0.2;" cx="261.799" cy="307.496" r="19.365"/>
				<g style="opacity:0.6;">
					<path style="fill:#407BFF;" d="M262.975,316.353v2.772h-2.03v-2.746c-2.424-0.149-4.775-0.941-6.061-2.055l1.113-2.498
						c1.213,0.989,3.068,1.706,4.948,1.88v-4.948c-2.746-0.669-5.69-1.559-5.69-4.998c0-2.524,1.831-4.726,5.69-5.097v-2.796h2.03
						v2.748c1.83,0.099,3.686,0.643,5.023,1.509l-1.015,2.498c-1.311-0.768-2.698-1.187-4.008-1.336v4.998
						c2.746,0.667,5.74,1.533,5.74,4.972C268.714,313.78,266.859,315.958,262.975,316.353z M260.945,305.764v-4.404
						c-1.756,0.272-2.498,1.162-2.498,2.25C258.447,304.799,259.511,305.343,260.945,305.764z M265.547,311.48
						c0-1.213-1.089-1.781-2.573-2.202v4.38C264.781,313.385,265.547,312.543,265.547,311.48z"/>
				</g>
			</g>
		</g>
		<g>
			<g>
				<path style="fill:#263238;" d="M182.978,181.694c1.561,5.518-0.034,11.068-3.561,12.397c-3.527,1.329-7.651-2.066-9.212-7.583
					c-1.56-5.518,0.034-11.068,3.561-12.397C177.293,172.781,181.417,176.176,182.978,181.694z"/>
				<path style="opacity:0.2;fill:#FFFFFF;" d="M182.978,181.694c1.561,5.518-0.034,11.068-3.561,12.397
					c-3.527,1.329-7.651-2.066-9.212-7.583c-1.56-5.518,0.034-11.068,3.561-12.397C177.293,172.781,181.417,176.176,182.978,181.694
					z"/>
				<path style="fill:none;stroke:#263238;stroke-width:1.1564;stroke-miterlimit:10;" d="M180.948,189.052
					c0,0,4.524,5.373,5.114,7.89c0.59,2.517-2.175,3.439-4.305,3.893"/>
			</g>
			<path style="fill:#263238;" d="M216.402,341.411h-16.193c0.092-1.725,0.184-3.523,0.286-5.36c0.092-1.685,0.204-3.4,0.306-5.126
				c0.031-0.429,0.061-0.858,0.092-1.286c0.97-14.059,2.573-28.16,5.105-28.119c0.327,0.01,0.664,0.255,1.031,0.766
				c0.408,0.592,0.827,1.368,1.235,2.307C211.44,311.863,214.452,328.679,216.402,341.411z"/>
			<g>
				<path style="fill:#407BFF;" d="M210.051,341.411h-85.99c0-8.485-0.031-19.481-0.541-32.06
					c-0.409-10.159-1.123-21.37-2.41-33.112c-0.745-6.728-1.664-13.651-2.808-20.635c-0.664-4.013-1.399-8.066-2.215-12.109
					c-1.154-5.708-2.471-11.435-3.992-17.133c0,0,6.555-1.787,14.968-3.39c1.746-0.337,3.584-0.664,5.452-0.96
					c1.593-0.255,3.216-0.49,4.85-0.694c0.02-0.01,0.041-0.01,0.072-0.01c0,0,0,0,0.01,0c0.51-0.072,1.031-0.133,1.552-0.194
					c1.195-0.133,2.451-0.276,3.757-0.419c0,0,0-0.01,0.01,0c1.96-0.204,4.013-0.419,6.116-0.613
					c6.779-0.633,14.059-1.154,20.022-1.276c0.541-0.01,1.082-0.01,1.603-0.02c1.021-0.01,1.991,0,2.91,0.02
					c1.062,0.02,2.89,0.112,3.737,0.153h0.01c0.276,0.02,0.449,0.031,0.449,0.031l11.844,3.849l8.311,2.706
					c0,0,0.388,1.777,1.031,5.115v0.01c0.756,3.931,1.858,10.016,3.084,17.919c1.225,7.831,2.573,17.449,3.808,28.507
					c0,0,0,0.01,0.01,0.02c0.939,8.383,1.828,17.592,2.563,27.476c0.276,3.676,0.521,7.453,0.756,11.313
					c0.255,4.36,0.47,8.842,0.654,13.416c0.02,0.429,0.041,0.868,0.051,1.307c0.061,1.644,0.123,3.308,0.173,4.983
					C209.96,337.531,210.011,339.461,210.051,341.411z"/>
			</g>
			<g style="opacity:0.7;">
				<path style="fill:#FFFFFF;" d="M210.051,341.411h-85.99c0-8.485-0.031-19.481-0.541-32.06
					c-0.409-10.159-1.123-21.37-2.41-33.112c-0.745-6.728-1.664-13.651-2.808-20.635c-0.664-4.013-1.399-8.066-2.215-12.109
					c-1.154-5.708-2.471-11.435-3.992-17.133c0,0,6.555-1.787,14.968-3.39c1.746-0.337,3.584-0.664,5.452-0.96
					c1.593-0.255,3.216-0.49,4.85-0.694c0.02-0.01,0.041-0.01,0.072-0.01c0,0,0,0,0.01,0c0.51-0.072,1.031-0.133,1.552-0.194
					c1.195-0.133,2.451-0.276,3.757-0.419c0,0,0-0.01,0.01,0c1.96-0.204,4.013-0.419,6.116-0.613
					c6.779-0.633,14.059-1.154,20.022-1.276c0.541-0.01,1.082-0.01,1.603-0.02c1.021-0.01,1.991,0,2.91,0.02
					c1.062,0.02,2.89,0.112,3.737,0.153h0.01c0.276,0.02,0.449,0.031,0.449,0.031l11.844,3.849l8.311,2.706
					c0,0,0.388,1.777,1.031,5.115v0.01c0.756,3.931,1.858,10.016,3.084,17.919c1.225,7.831,2.573,17.449,3.808,28.507
					c0,0,0,0.01,0.01,0.02c0.939,8.383,1.828,17.592,2.563,27.476c0.276,3.676,0.521,7.453,0.756,11.313
					c0.255,4.36,0.47,8.842,0.654,13.416c0.02,0.429,0.041,0.868,0.051,1.307c0.061,1.644,0.123,3.308,0.173,4.983
					C209.96,337.531,210.011,339.461,210.051,341.411z"/>
			</g>
			<polygon style="fill:#263238;" points="211.655,341.411 128.095,341.411 129.728,332.243 137.447,331.957 200.893,329.639 
				209.674,329.323 210.184,329.302 210.337,330.609 210.348,330.609 210.94,335.561 			"/>
			<polygon style="opacity:0.4;fill:#FFFFFF;" points="211.655,341.411 128.095,341.411 129.728,332.243 137.447,331.957 
				200.893,329.639 209.674,329.323 210.184,329.302 210.337,330.609 210.348,330.609 210.94,335.561 			"/>
			<g>
				<polygon points="158.291,332.354 158.442,338.043 129.301,339.431 130.782,333.279 				"/>
				<polygon points="201.296,330.909 201.862,335.985 160.199,337.962 160.13,332.296 				"/>
				<polygon points="210.94,335.557 203.62,335.904 203.123,330.851 210.35,330.608 				"/>
				<path style="fill:none;stroke:#FFFFFF;stroke-width:1.1564;stroke-miterlimit:10;" d="M176.61,332.51l0.357,3.966
					c0.035,0.386,0.366,0.677,0.753,0.662l8.108-0.312c0.411-0.016,0.727-0.369,0.698-0.779l-0.284-3.93
					c-0.028-0.39-0.359-0.688-0.75-0.675l-8.181,0.276C176.893,331.731,176.573,332.094,176.61,332.51z"/>
				
					<line style="fill:none;stroke:#FFFFFF;stroke-width:1.1564;stroke-linecap:round;stroke-linejoin:round;stroke-miterlimit:10;" x1="183.406" y1="334.105" x2="185.103" y2="334.013"/>
			</g>
			<g>
				<path style="fill:#EBB376;" d="M285.008,264.186L301.364,262l-10.011-15.322c0,0-14.476,2.831-12.704,10.227L285.008,264.186z"
					/>
				<polygon style="fill:#EBB376;" points="314.075,251.724 300.994,241.473 291.353,246.678 301.364,262 				"/>
			</g>
			<path style="fill:#263238;" d="M199.068,221.722c11.121,1.912,36.719,52.68,36.719,52.68l43.168-23.236l9.908,13.947
				c0,0-45.114,37.353-56.924,34.912c-11.809-2.441-34.199-33.012-34.199-33.012L199.068,221.722z"/>
			<path style="opacity:0.2;fill:#FFFFFF;" d="M288.866,265.113c0,0-45.12,37.35-56.927,34.91
				c-4.348-0.902-10.13-5.608-15.692-11.205c-9.563-9.598-18.502-21.809-18.502-21.809l0.301-10.21l1.017-35.072
				c11.124,1.908,36.726,52.671,36.726,52.671l43.166-23.231L288.866,265.113z"/>
			<path style="opacity:0.2;" d="M216.247,288.818c-9.563-9.598-18.502-21.809-18.502-21.809l0.301-10.21l2.093-10.962
				C200.139,245.837,211.923,262.546,216.247,288.818z"/>
			<g>
				<path style="fill:#EBB376;" d="M141.697,220.169c0,0,21,10.508,26.423,9.322c3.799-0.829,8.024-8.208,8.024-8.208
					c-3.072-0.845-5.339-2.05-6.933-3.524c-4.836-4.387-3.954-11.117-2.075-17.494l-20.383-18.729
					c0.685,4.452,1.294,10.401,1.264,16.375c0.005,0.021,0.005,0.021,0.005,0.021C148.003,206.865,146.521,215.887,141.697,220.169z
					"/>
				<path style="opacity:0.2;" d="M148.017,197.911c0.005,0.021,0.005,0.021,0.005,0.021c3.636,9.272,10.132,19.497,21.19,19.828
					c-4.836-4.387-3.954-11.117-2.075-17.494l-20.383-18.729C147.439,185.988,148.047,191.937,148.017,197.911z"/>
			</g>
			<g>
				<path style="fill:#263238;" d="M141.654,280.375v0.051c0,0.031,0,0.041,0,0.041c-0.01,0.837-0.031,1.685-0.051,2.563v0.072
					c-0.061,2.185-0.143,4.492-0.266,6.902v0.143c-0.071,1.409-0.153,2.859-0.245,4.349c0,0.061,0,0.122-0.01,0.184
					c-0.061,0.96-0.122,1.94-0.184,2.93c-0.327,4.85-0.766,10.037-1.297,15.468c-0.102,1.062-0.214,2.134-0.327,3.216
					c-0.143,1.338-0.286,2.695-0.429,4.053c-0.123,1.092-0.245,2.185-0.378,3.298c-0.327,2.726-0.664,5.503-1.021,8.311
					c-0.051,0.368-0.102,0.735-0.143,1.103c-0.02,0.112-0.031,0.235-0.051,0.347c-0.255,1.879-0.511,3.778-0.776,5.687
					c-0.112,0.776-0.225,1.542-0.327,2.318h-14.345c0.01-0.245,0.02-0.5,0.03-0.745c0.163-4.676,0.215-9.332,0.061-13.804
					c-0.061-1.807-0.153-3.584-0.276-5.33c-0.03-0.459-0.071-0.929-0.102-1.409c-0.113-1.429-0.245-2.93-0.398-4.503
					c-0.654-6.769-1.613-14.754-2.737-23.116c0-0.051-0.01-0.092-0.021-0.133c-0.173-1.297-0.347-2.593-0.531-3.9
					c-0.051-0.439-0.122-0.888-0.184-1.338c-0.122-0.868-0.235-1.736-0.357-2.604c-0.143-0.97-0.276-1.94-0.419-2.92v-0.01
					c-0.194-1.338-0.388-2.685-0.582-4.023c-0.143-0.98-0.286-1.96-0.429-2.93c-0.266-1.777-0.531-3.553-0.796-5.299
					c-0.459-3.094-0.919-6.136-1.379-9.077c-0.194-1.225-0.388-2.44-0.572-3.635c-0.194-1.195-0.378-2.369-0.551-3.512
					c-0.092-0.572-0.184-1.133-0.276-1.685c-0.225-1.409-0.439-2.787-0.653-4.125c-0.082-0.531-0.174-1.052-0.255-1.572
					c-0.133-0.848-0.266-1.664-0.398-2.471c-0.071-0.429-0.133-0.837-0.204-1.256c-0.041-0.235-0.082-0.47-0.112-0.704
					c-0.112-0.664-0.214-1.307-0.317-1.93c-0.153-0.919-0.296-1.807-0.439-2.645c-0.061-0.398-0.133-0.796-0.194-1.174
					c-0.041-0.235-0.072-0.47-0.113-0.704c-0.857-5.126-1.388-8.199-1.388-8.199s0-0.01,0.01,0c0-0.01,0-0.01,0-0.01s0,0,0.01,0
					c0.01,0,0.031-0.01,0.061-0.02c0.153-0.072,0.551-0.225,1.205-0.449c0.184-0.061,0.388-0.133,0.613-0.214
					c0.153-0.051,0.327-0.112,0.51-0.163c1.726-0.572,4.37-1.358,7.852-2.175c1.511-0.347,3.165-0.704,4.982-1.062
					c0.572-0.102,1.154-0.214,1.756-0.316c0.796-0.143,1.623-0.286,2.481-0.419c2.542-0.398,5.33-0.766,8.331-1.072
					c0.419-0.041,0.848-0.082,1.287-0.122h0.01c0,0,0.041,0.225,0.122,0.674c0.061,0.368,0.143,0.888,0.245,1.552
					c-0.01,0.01,0,0.01,0.01,0.02c0,0.041,0.011,0.092,0.011,0.143c0.01,0.031,0.02,0.061,0.02,0.102
					c0.041,0.245,0.082,0.511,0.123,0.796c0.143,0.919,0.306,2.011,0.48,3.257c0.031,0.214,0.061,0.429,0.092,0.653
					c0.061,0.439,0.123,0.888,0.184,1.358c0.061,0.47,0.133,0.97,0.194,1.48c0.061,0.5,0.133,1.021,0.194,1.552
					c0.347,2.798,0.715,6.034,1.062,9.638c0.041,0.429,0.082,0.878,0.123,1.327c0.102,1.184,0.214,2.41,0.316,3.665
					c0.02,0.225,0.041,0.449,0.051,0.684c0.082,0.909,0.153,1.838,0.214,2.777c0.031,0.398,0.061,0.786,0.082,1.184
					c0.031,0.398,0.061,0.807,0.082,1.205c0.031,0.408,0.061,0.817,0.082,1.225c0.041,0.653,0.081,1.317,0.122,1.991
					c0.02,0.327,0.031,0.664,0.051,1.001c0.031,0.531,0.061,1.072,0.092,1.623c0.01,0.286,0.02,0.582,0.041,0.878
					C141.623,265.948,141.776,273.014,141.654,280.375z"/>
				<path style="opacity:0.2;fill:#FFFFFF;" d="M141.664,280.385c-0.01,0.02-0.01,0.031-0.01,0.041c0,0.02,0.01,0.031,0.01,0.031
					c-0.01,0.837-0.031,1.695-0.061,2.573v0.072c-0.051,2.185-0.143,4.492-0.266,6.902v0.143c-0.071,1.409-0.153,2.859-0.245,4.349
					c0,0.061,0,0.122-0.01,0.184c-0.051,0.96-0.112,1.94-0.184,2.93c-0.327,4.85-0.766,10.037-1.297,15.468
					c-0.102,1.062-0.214,2.134-0.327,3.216c-0.143,1.338-0.286,2.695-0.429,4.053c-0.123,1.092-0.255,2.185-0.378,3.298
					c-0.327,2.726-0.664,5.503-1.021,8.311c-0.051,0.368-0.102,0.735-0.143,1.103h-0.01c-0.01,0.112-0.031,0.235-0.041,0.347
					c-0.255,1.879-0.511,3.778-0.776,5.687c-0.112,0.776-0.225,1.542-0.327,2.318h-14.345c-0.01,0.112-0.01,0.214-0.021,0.327
					c0.01-0.112,0.01-0.225,0.01-0.327c0.01-0.245,0.02-0.5,0.041-0.745c0.163-4.676,0.215-9.332,0.061-13.804
					c-0.051-1.807-0.143-3.594-0.265-5.33c-0.031-0.459-0.071-0.929-0.112-1.409c-0.113-1.429-0.245-2.93-0.398-4.503
					c-0.633-6.769-1.603-14.754-2.737-23.116c0-0.051-0.01-0.092-0.021-0.133c-0.092-0.694-0.184-1.378-0.276-2.073
					c-0.082-0.613-0.163-1.215-0.255-1.827c-0.051-0.439-0.122-0.888-0.184-1.338c-0.112-0.868-0.235-1.736-0.357-2.604
					c-0.143-0.97-0.276-1.94-0.419-2.92v-0.01c-0.194-1.338-0.388-2.685-0.582-4.023c-0.143-0.98-0.286-1.96-0.429-2.93
					c-0.266-1.777-0.531-3.553-0.796-5.299c-0.459-3.094-0.919-6.136-1.379-9.077c-0.092-0.541-0.174-1.062-0.255-1.593
					c-0.102-0.684-0.214-1.368-0.316-2.042c-0.194-1.195-0.378-2.369-0.551-3.512c-0.092-0.572-0.184-1.133-0.276-1.685
					c-0.225-1.409-0.439-2.787-0.653-4.125c-0.082-0.531-0.174-1.062-0.255-1.572c-0.133-0.848-0.266-1.664-0.398-2.471
					c-0.071-0.429-0.133-0.837-0.204-1.256c-0.041-0.235-0.082-0.47-0.112-0.704c-0.112-0.664-0.214-1.307-0.317-1.93
					c-0.153-0.919-0.296-1.807-0.439-2.645c-0.061-0.398-0.133-0.796-0.194-1.174c-0.041-0.235-0.072-0.47-0.113-0.704
					c-0.817-4.952-1.337-7.995-1.378-8.199c0-0.01,0-0.01,0-0.01s0,0,0.01,0c0.01,0,0.031-0.01,0.061-0.02
					c0.153-0.072,0.551-0.225,1.205-0.449c0.184-0.072,0.388-0.133,0.613-0.214c0.153-0.051,0.327-0.112,0.51-0.163
					c1.726-0.572,4.37-1.358,7.852-2.175c1.511-0.347,3.165-0.704,4.982-1.062c0.572-0.102,1.154-0.214,1.756-0.316
					c0.796-0.143,1.623-0.286,2.481-0.419c2.542-0.398,5.33-0.766,8.331-1.072c0.429-0.051,0.858-0.092,1.287-0.133c0,0,0,0,0,0.01
					c0,0.01,0.01,0.031,0.01,0.051v0.01c0.02,0.102,0.061,0.306,0.112,0.613c0.061,0.368,0.143,0.888,0.255,1.552
					c0,0.051,0.01,0.112,0.021,0.163c0.01,0.031,0.02,0.061,0.02,0.102c0.031,0.245,0.072,0.511,0.123,0.796
					c0.133,0.909,0.296,2.001,0.48,3.257c0.031,0.214,0.061,0.429,0.092,0.653c0.051,0.429,0.112,0.888,0.184,1.358
					c0.061,0.47,0.133,0.97,0.194,1.48c0.061,0.5,0.123,1.021,0.194,1.552c0.347,2.798,0.715,6.034,1.062,9.638
					c0.041,0.439,0.082,0.878,0.123,1.327c0.102,1.184,0.214,2.41,0.316,3.665c0.02,0.225,0.041,0.449,0.051,0.684
					c0.082,0.909,0.153,1.838,0.214,2.777c0.031,0.398,0.061,0.786,0.082,1.184c0.031,0.398,0.061,0.807,0.082,1.205
					c0.031,0.408,0.061,0.817,0.082,1.225c0.041,0.653,0.081,1.317,0.122,1.991c0.02,0.327,0.031,0.664,0.051,1.001
					c0.031,0.541,0.061,1.082,0.092,1.623c0.01,0.286,0.02,0.582,0.041,0.878c0.079,1.671,0.146,3.38,0.202,5.118
					C141.683,269.595,141.747,274.907,141.664,280.385z"/>
				<path style="opacity:0.2;fill:#FFFFFF;" d="M137.322,220.634c0,0,4.867,26.941,4.336,59.744
					c-0.008,0.066-0.004,0.087-0.004,0.087l-18.983-39.346l10.775-3.325l-12.33-4.189l6.58-11.773
					C130.607,221.38,133.824,220.95,137.322,220.634z"/>
			</g>
			<g>
				<path style="fill:#263238;" d="M218.495,341.411h-4.656c-1.368-7.75-2.971-16.316-4.819-25.505
					c-0.939-4.646-1.95-9.444-3.022-14.386c-1.266-5.84-2.634-11.864-4.094-18.051c-0.653-2.777-1.317-5.452-1.95-8.005
					c-0.745-2.971-1.491-5.789-2.216-8.454c-11.17-41.096-19.563-47.62-20.124-48.018l7.627,0.96l13.825,1.766v0.01
					c2.777,9.138,5.493,22.166,8.045,36.92c1.348,7.831,2.655,16.142,3.9,24.617v0.01
					C213.931,303.205,216.504,324.003,218.495,341.411z"/>
				<path style="opacity:0.2;fill:#FFFFFF;" d="M218.495,341.411h-4.656c-1.368-7.75-2.971-16.316-4.819-25.505
					c-0.939-4.646-1.95-9.444-3.022-14.386c-1.266-5.84-2.634-11.864-4.094-18.051c-0.653-2.777-1.317-5.452-1.95-8.005
					c-0.745-2.971-1.491-5.789-2.216-8.454c-11.17-41.096-19.563-47.62-20.124-48.018l7.627,0.96l13.825,1.766v0.01
					c2.777,9.138,5.493,22.166,8.045,36.92c1.348,7.831,2.655,16.142,3.9,24.617v0.01
					C213.931,303.205,216.504,324.003,218.495,341.411z"/>
				<path style="opacity:0.2;fill:#FFFFFF;" d="M188.836,234.615l9.208,3.418c0,0,2.851,24.461,1.907,37.428
					c-12.264-48.68-21.729-56.037-22.334-56.47l7.625,0.955c3.408,2.15,8.742,5.94,12.302,10.591L188.836,234.615z"/>
			</g>
			<g>
				<path style="fill:#263238;" d="M173.16,156.21c0,0,10.661,6.762,7.037,25.686C176.572,200.819,153.706,163.182,173.16,156.21z"
					/>
				<path style="fill:#EBB376;" d="M140.9,180.466c2.68,14.634,0.855,17.241,9.218,23.849c12.579,9.939,31.178,9.968,32.047-5.288
					c0.782-13.732-0.742-38.262-15.89-42.265C151.35,152.818,138.22,165.832,140.9,180.466z"/>
				<path style="fill:#263238;" d="M158.919,179.832c0.199,1.252,0.786,1.294,1.604,1.156c0.818-0.138,1.558-0.402,1.359-1.654
					c-0.199-1.252-1.024-2.156-1.842-2.018C159.222,177.453,158.72,178.58,158.919,179.832z"/>
				<path style="fill:#263238;" d="M174.413,178.958c0.199,1.252,0.786,1.294,1.604,1.156c0.818-0.137,1.558-0.402,1.359-1.654
					c-0.199-1.252-1.024-2.156-1.842-2.018C174.716,176.579,174.214,177.706,174.413,178.958z"/>
				<path style="fill:#D58745;" d="M171.968,178.673c0,0,2.743,5.358,5.429,7.799c-1.561,1.781-4.547,1.357-4.547,1.357
					L171.968,178.673z"/>
				<path style="fill:#263238;" d="M155.918,174.464c-0.124-0.012-0.245-0.055-0.353-0.131c-0.335-0.236-0.412-0.701-0.173-1.038
					c2.398-3.373,5.838-3.295,5.983-3.29c0.412,0.014,0.73,0.359,0.712,0.77c-0.018,0.41-0.363,0.731-0.773,0.719l0,0
					c-0.113-0.003-2.796-0.036-4.71,2.656C156.442,174.378,156.176,174.49,155.918,174.464z"/>
				<path style="fill:#263238;" d="M179.792,172.401c-0.231,0.068-0.491,0.021-0.687-0.146c-2.49-2.127-5.076-1.411-5.185-1.379
					c-0.394,0.114-0.805-0.111-0.917-0.505c-0.112-0.394,0.112-0.807,0.505-0.925c0.143-0.04,3.446-0.995,6.566,1.669
					c0.312,0.266,0.347,0.737,0.08,1.052C180.054,172.283,179.928,172.362,179.792,172.401z"/>
				<path style="fill:#263238;" d="M143.596,190.271c6.864,3.67,5.083-3.294,4.585-3.995c-2.178-3.067-0.485-7.454,1.6-13.635
					c0.928-2.75,0.048-7.165,0.048-7.165s-8.356-1.35-13.277,0.055c-5.081,1.451-5.136,5.578-5.136,5.578
					C132.93,184.04,138.066,187.314,143.596,190.271z"/>
				<path style="fill:#EBB376;" d="M135.344,191.118c1.871,3.369,4.888,5.563,7.644,6.388c4.147,1.242,5.872-2.877,4.427-7.191
					c-1.3-3.883-5.024-9.209-9.046-8.546C134.408,182.423,133.205,187.267,135.344,191.118z"/>
				<g>
					<path style="fill:#263238;" d="M174.927,192.201c-0.806,2.304-1.417,6.535-1.417,6.535c-0.393,0.014-0.787,0.028-1.18,0.021
						c-5.339,0.053-7.834-1.687-8.98-3.632c-0.623-1.066-0.83-2.208-0.876-3.139c-0.064-1.077,0.135-1.86,0.135-1.86
						c2.848,1.663,7.829,1.997,10.497,2.065C174.223,192.23,174.927,192.201,174.927,192.201z"/>
					<path style="fill:#FFFFFF;" d="M173.107,192.19l-0.468,1.916c-5.029,0.037-8.575-0.611-10.165-2.12
						c-0.064-1.077,0.135-1.86,0.135-1.86C165.457,191.789,170.438,192.123,173.107,192.19z"/>
					<path style="fill:#DE5753;" d="M172.331,198.757c-5.339,0.053-7.834-1.687-8.98-3.632c1.82,0.052,4.009,0.318,5.941,1.117
						C170.771,196.847,171.706,197.795,172.331,198.757z"/>
				</g>
				<path style="fill:#263238;" d="M131.695,173.127c0,0-6.378-8.041,3.66-16.282c10.038-8.241,26.463-9.665,35.891-6.665
					c9.428,3,2.851,11.025-6.958,14.711c-5.368,2.018-7.659,1.153-7.659,1.153s2.83,0.274,6.721-3.564
					c0,0-13.497,0.328-15.431,8.578C145.984,179.309,131.695,173.127,131.695,173.127z"/>
			</g>
			<path style="opacity:0.2;" d="M118.085,290.298c-0.567-4.198-1.168-8.476-1.792-12.72c-0.405-2.764-0.809-5.527-1.226-8.233
				c0.44-1.122,0.902-2.186,1.596-3.064C116.663,266.281,120.444,276.329,118.085,290.298z"/>
			<path style="fill:#407BFF;" d="M161.439,232.176l7.255,5.681c0,0,5.563,35.22,5.346,65.668l6.37,6.81l4.711-8.051
				c0,0-8.448-49.575-13.238-64.428l4.261-8.273l-8.019-0.09L161.439,232.176z"/>
			<g>
				<g>
					<path style="fill:#407BFF;" d="M168.125,229.494c0,0-3.567,4.909-7.801,9.82c-6.875-2.775-23.064-10.381-23.002-18.681
						c0.708-2.476,6.849-4.525,6.849-4.525S151.759,224.4,168.125,229.494z"/>
				</g>
				<g>
					<path style="fill:#407BFF;" d="M168.125,229.494c0,0,5.492,3.562,9.268,8.363c4.587-3.553,0.833-18.671-1.092-20.215
						c-4.036-1.984-8.537-1.476-8.537-1.476S171.806,222.844,168.125,229.494z"/>
				</g>
				<g style="opacity:0.6;">
					<g>
						<path style="fill:#FFFFFF;" d="M168.125,229.494c0,0-3.567,4.909-7.801,9.82c-6.875-2.775-23.064-10.381-23.002-18.681
							c0.708-2.476,6.849-4.525,6.849-4.525S151.759,224.4,168.125,229.494z"/>
					</g>
					<g>
						<path style="fill:#FFFFFF;" d="M168.125,229.494c0,0,5.492,3.562,9.268,8.363c4.587-3.553,0.833-18.671-1.092-20.215
							c-4.036-1.984-8.537-1.476-8.537-1.476S171.806,222.844,168.125,229.494z"/>
					</g>
				</g>
			</g>
			<path style="fill:#263238;" d="M118.66,271.421l-0.347,1.981l-1.44,8.199v0.01l-4.778,27.2l0.766,32.601h-8.628V231.234
				c1.307-2.563,2.644-4.196,3.982-4.584v0.01c0,0,0-0.01,0.01,0c0.214,0.235,4.799,5.483,7.862,16.837
				c0.939,3.461,1.725,7.484,2.215,12.109C118.793,260.261,118.967,265.519,118.66,271.421z"/>
			<path style="opacity:0.2;fill:#FFFFFF;" d="M118.66,271.421l-0.347,1.981l-1.44,8.199v0.01l-4.778,27.2l0.766,32.601h-8.628
				V231.234c1.307-2.563,2.644-4.196,3.982-4.584v0.01c0,0,0-0.01,0.01,0c0.214,0.235,4.799,5.483,7.862,16.837
				c0.939,3.461,1.725,7.484,2.215,12.109C118.793,260.261,118.967,265.519,118.66,271.421z"/>
			<g>
				<path style="fill:#263238;" d="M147.3,186.073c1.561,5.517-0.034,11.068-3.561,12.397c-3.527,1.329-7.651-2.066-9.212-7.583
					c-1.56-5.518,0.034-11.068,3.561-12.397C141.615,177.16,145.739,180.555,147.3,186.073z"/>
				<path style="opacity:0.2;fill:#FFFFFF;" d="M147.3,186.073c1.561,5.517-0.034,11.068-3.561,12.397
					c-3.527,1.329-7.651-2.066-9.212-7.583c-1.56-5.518,0.034-11.068,3.561-12.397C141.615,177.16,145.739,180.555,147.3,186.073z"
					/>
				<path style="fill:#263238;" d="M139.941,183.737c0,0-2.618-27.527,11.212-34.102c0,0-1.88-0.368-3.87,0.54
					c-1.99,0.908-13.944,5.873-11.941,33.328L139.941,183.737z"/>
				<path style="opacity:0.4;fill:#FFFFFF;" d="M139.778,180.503c0.046,2.012,0.162,3.238,0.162,3.238l-4.602-0.243
					c-0.046-0.59-0.081-1.168-0.104-1.734c-1.387-25.925,10.106-30.701,12.049-31.591c1.989-0.902,3.874-0.532,3.874-0.532
					C140.252,154.821,139.57,173.033,139.778,180.503z"/>
				<path style="fill:#263238;" d="M183.253,201.535l-2.574,0.548c-0.465,0.099-0.923-0.198-1.022-0.663l-0.056-0.264
					c-0.099-0.465,0.198-0.923,0.663-1.022l2.574-0.548c0.465-0.099,0.923,0.198,1.022,0.663l0.056,0.264
					C184.015,200.978,183.718,201.436,183.253,201.535z"/>
				<path style="opacity:0.2;fill:#FFFFFF;" d="M183.253,201.535l-2.574,0.548c-0.465,0.099-0.923-0.198-1.022-0.663l-0.056-0.264
					c-0.099-0.465,0.198-0.923,0.663-1.022l2.574-0.548c0.465-0.099,0.923,0.198,1.022,0.663l0.056,0.264
					C184.015,200.978,183.718,201.436,183.253,201.535z"/>
				<path style="opacity:0.2;" d="M139.94,183.741l-4.602-0.243c-0.046-0.59-0.081-1.168-0.104-1.734c0,0,1.229-2.27,4.544-1.26
					C139.824,182.515,139.94,183.741,139.94,183.741z"/>
				<path style="fill:#263238;" d="M143.795,187.725c1.173,4.149-0.025,8.322-2.677,9.322s-5.753-1.553-6.926-5.702
					c-1.173-4.149,0.025-8.322,2.677-9.322S142.622,183.576,143.795,187.725z"/>
				<path style="opacity:0.4;fill:#FFFFFF;" d="M143.795,187.725c1.173,4.149-0.025,8.322-2.677,9.322s-5.753-1.553-6.926-5.702
					c-1.173-4.149,0.025-8.322,2.677-9.322S142.622,183.576,143.795,187.725z"/>
			</g>
		</g>
	</g>
</g>
<g id="Screen_3">
	<g>
		<path style="fill:#407BFF;" d="M376.883,240.741h-60.142c-1.41,0-2.553-1.143-2.553-2.553v-56.197c0-1.41,1.143-2.553,2.553-2.553
			h60.142c1.41,0,2.553,1.143,2.553,2.553v56.197C379.436,239.598,378.293,240.741,376.883,240.741z"/>
		<path style="opacity:0.7;fill:#FFFFFF;" d="M376.883,240.741h-60.142c-1.41,0-2.553-1.143-2.553-2.553v-56.197
			c0-1.41,1.143-2.553,2.553-2.553h60.142c1.41,0,2.553,1.143,2.553,2.553v56.197C379.436,239.598,378.293,240.741,376.883,240.741z
			"/>
		<g>
			<circle style="fill:#407BFF;" cx="346.812" cy="210.09" r="21.158"/>
			<path style="opacity:0.3;fill:#FFFFFF;" d="M346.812,210.09h21.158c0,11.607-9.551,21.158-21.158,21.158
				c-11.607,0-21.158-9.551-21.158-21.158c0-11.607,9.551-21.158,21.158-21.158c2.668,0,5.313,0.505,7.793,1.488L346.812,210.09z"/>
			<path style="opacity:0.3;fill:#FFFFFF;" d="M346.812,210.09l-0.564,21.151c-11.39-0.304-20.594-9.757-20.594-21.151
				c0-11.607,9.551-21.158,21.158-21.158c2.668,0,5.313,0.505,7.793,1.488L346.812,210.09z"/>
		</g>
		<circle style="fill:#FFFFFF;" cx="346.812" cy="210.09" r="13.198"/>
		<rect x="320.656" y="186.395" style="fill:#FFFFFF;" width="9.506" height="4.976"/>
		<rect x="363.217" y="229.802" style="fill:#FFFFFF;" width="9.506" height="4.976"/>
		<rect x="362.234" y="184.569" style="fill:#FFFFFF;" width="9.506" height="4.976"/>
		
			<line style="fill:none;stroke:#FFFFFF;stroke-width:0.4814;stroke-miterlimit:10;" x1="325.409" y1="188.883" x2="333.613" y2="197.924"/>
		
			<line style="fill:none;stroke:#FFFFFF;stroke-width:0.4814;stroke-miterlimit:10;" x1="366.987" y1="187.449" x2="361.414" y2="199.5"/>
		
			<line style="fill:none;stroke:#FFFFFF;stroke-width:0.4814;stroke-miterlimit:10;" x1="367.97" y1="232.29" x2="360.553" y2="221.279"/>
		<path style="fill:#FFFFFF;" d="M334.253,197.924c0,0.353-0.287,0.64-0.64,0.64c-0.353,0-0.64-0.286-0.64-0.64
			c0-0.354,0.286-0.64,0.64-0.64C333.967,197.284,334.253,197.57,334.253,197.924z"/>
		<circle style="fill:#FFFFFF;" cx="361.414" cy="199.5" r="0.64"/>
		<path style="fill:#FFFFFF;" d="M361.193,221.279c0,0.353-0.287,0.64-0.64,0.64c-0.353,0-0.64-0.287-0.64-0.64
			c0-0.354,0.286-0.64,0.64-0.64C360.907,220.639,361.193,220.925,361.193,221.279z"/>
	</g>
</g>
<g id="Screen_2">
	<g>
		<path style="fill:#407BFF;" d="M368.48,332.921h-76.512c-1.41,0-2.553-1.143-2.553-2.553v-56.197c0-1.41,1.143-2.553,2.553-2.553
			h76.512c1.41,0,2.553,1.143,2.553,2.553v56.197C371.033,331.778,369.89,332.921,368.48,332.921z"/>
		<path style="opacity:0.7;fill:#FFFFFF;" d="M368.48,332.921h-76.512c-1.41,0-2.553-1.143-2.553-2.553v-56.197
			c0-1.41,1.143-2.553,2.553-2.553h76.512c1.41,0,2.553,1.143,2.553,2.553v56.197C371.033,331.778,369.89,332.921,368.48,332.921z"
			/>
		<g>
			<path style="opacity:0.1;" d="M362.509,285.182v-0.241h-3.82v-3.589h-0.241v3.589h-6.391v-3.589h-0.241v3.589h-6.392v-3.589
				h-0.241v3.589h-6.392v-3.589h-0.241v3.589h-6.392v-3.589h-0.241v3.589h-6.391v-3.589h-0.241v3.589h-6.392v-3.589h-0.241v3.589
				h-6.392v-3.589h-0.241v3.589h-6.392v-3.589h-0.241v3.589h-7.183v0.241h7.183v6.085h-7.183v0.241h7.183v6.085h-7.183v0.241h7.183
				v6.085h-7.183v0.241h7.183v6.085h-7.183v0.241h7.183v6.085h-7.183v0.241h7.183v6.78h0.241v-6.78h6.392v6.78h0.241v-6.78h6.392
				v6.78h0.241v-6.78h6.392v6.78h0.241v-6.78h6.391v6.78h0.241v-6.78h6.392v6.78h0.241v-6.78h6.392v6.78h0.241v-6.78h6.392v6.78
				h0.241v-6.78h6.391v6.78h0.241v-6.78h3.82v-0.241h-3.82v-6.085h3.82v-0.241h-3.82v-6.085h3.82v-0.241h-3.82v-6.085h3.82v-0.241
				h-3.82v-6.085h3.82v-0.241h-3.82v-6.085H362.509z M351.817,285.182v6.085h-6.392v-6.085H351.817z M325.528,297.833h6.391v6.085
				h-6.391V297.833z M325.287,303.918h-6.392v-6.085h6.392V303.918z M332.16,297.833h6.392v6.085h-6.392V297.833z M338.793,297.833
				h6.392v6.085h-6.392V297.833z M338.793,297.592v-6.085h6.392v6.085H338.793z M338.552,297.592h-6.392v-6.085h6.392V297.592z
				 M331.919,297.592h-6.391v-6.085h6.391V297.592z M325.287,297.592h-6.392v-6.085h6.392V297.592z M318.655,297.592h-6.392v-6.085
				h6.392V297.592z M318.655,297.833v6.085h-6.392v-6.085H318.655z M318.655,304.159v6.085h-6.392v-6.085H318.655z M318.896,304.159
				h6.392v6.085h-6.392V304.159z M325.528,304.159h6.391v6.085h-6.391V304.159z M332.16,304.159h6.392v6.085h-6.392V304.159z
				 M338.793,304.159h6.392v6.085h-6.392V304.159z M345.425,304.159h6.392v6.085h-6.392V304.159z M345.425,303.918v-6.085h6.392
				v6.085H345.425z M345.425,297.592v-6.085h6.392v6.085H345.425z M345.184,285.182v6.085h-6.392v-6.085H345.184z M338.552,285.182
				v6.085h-6.392v-6.085H338.552z M331.919,285.182v6.085h-6.391v-6.085H331.919z M325.287,285.182v6.085h-6.392v-6.085H325.287z
				 M318.655,285.182v6.085h-6.392v-6.085H318.655z M305.631,285.182h6.392v6.085h-6.392V285.182z M305.631,291.508h6.392v6.085
				h-6.392V291.508z M305.631,297.833h6.392v6.085h-6.392V297.833z M305.631,304.159h6.392v6.085h-6.392V304.159z M305.631,316.569
				v-6.085h6.392v6.085H305.631z M312.263,316.569v-6.085h6.392v6.085H312.263z M318.896,316.569v-6.085h6.392v6.085H318.896z
				 M325.528,316.569v-6.085h6.391v6.085H325.528z M332.16,316.569v-6.085h6.392v6.085H332.16z M338.793,316.569v-6.085h6.392v6.085
				H338.793z M345.425,316.569v-6.085h6.392v6.085H345.425z M358.449,316.569h-6.391v-6.085h6.391V316.569z M358.449,310.243h-6.391
				v-6.085h6.391V310.243z M358.449,303.918h-6.391v-6.085h6.391V303.918z M358.449,297.592h-6.391v-6.085h6.391V297.592z
				 M358.449,291.267h-6.391v-6.085h6.391V291.267z"/>
			<path style="fill:#FFFFFF;" d="M306.963,320.338c0,0.868-0.704,1.573-1.572,1.573c-0.868,0-1.573-0.704-1.573-1.573
				c0-0.868,0.704-1.572,1.573-1.572C306.259,318.766,306.963,319.47,306.963,320.338z"/>
			<polyline style="fill:none;stroke:#FFFFFF;stroke-width:0.9629;stroke-miterlimit:10;" points="298.64,323.033 305.39,320.338 
				312.023,316.809 318.655,314.135 325.287,310.243 338.552,313.526 345.184,310.243 358.689,304.159 			"/>
			<polyline style="fill:none;stroke:#263238;stroke-width:0.9629;stroke-miterlimit:10;" points="362.241,323.033 297.939,323.033 
				297.939,280.949 			"/>
			<polyline style="fill:none;stroke:#407BFF;stroke-width:0.9629;stroke-miterlimit:10;" points="297.939,323.033 305.39,316.569 
				312.023,307.99 318.896,310.243 325.528,304.159 338.552,310.484 345.184,303.918 358.449,291.508 			"/>
			<path style="fill:#FFFFFF;stroke:#407BFF;stroke-width:0.9629;stroke-miterlimit:10;" d="M306.963,316.569
				c0,0.868-0.704,1.572-1.572,1.572c-0.868,0-1.573-0.704-1.573-1.572s0.704-1.572,1.573-1.572
				C306.259,314.996,306.963,315.7,306.963,316.569z"/>
			<path style="fill:#FFFFFF;" d="M313.595,316.569c0,0.868-0.704,1.572-1.572,1.572c-0.868,0-1.573-0.704-1.573-1.572
				s0.704-1.572,1.573-1.572C312.891,314.996,313.595,315.7,313.595,316.569z"/>
			<circle style="fill:#FFFFFF;" cx="318.655" cy="314.135" r="1.572"/>
			<path style="fill:#FFFFFF;" d="M326.86,310.484c0,0.868-0.704,1.572-1.572,1.572c-0.868,0-1.572-0.704-1.572-1.572
				c0-0.868,0.704-1.572,1.572-1.572C326.156,308.912,326.86,309.616,326.86,310.484z"/>
			<path style="fill:#FFFFFF;" d="M340.124,313.526c0,0.868-0.704,1.572-1.573,1.572c-0.868,0-1.572-0.704-1.572-1.572
				c0-0.868,0.704-1.572,1.572-1.572C339.42,311.954,340.124,312.658,340.124,313.526z"/>
			<path style="fill:#FFFFFF;" d="M346.757,310.484c0,0.868-0.704,1.572-1.573,1.572c-0.868,0-1.572-0.704-1.572-1.572
				c0-0.868,0.704-1.572,1.572-1.572C346.053,308.912,346.757,309.616,346.757,310.484z"/>
			<path style="fill:#FFFFFF;" d="M360.021,304.159c0,0.868-0.704,1.572-1.572,1.572c-0.868,0-1.572-0.704-1.572-1.572
				c0-0.868,0.704-1.573,1.572-1.573C359.317,302.586,360.021,303.29,360.021,304.159z"/>
			<path style="fill:#FFFFFF;stroke:#407BFF;stroke-width:0.9629;stroke-miterlimit:10;" d="M313.595,307.99
				c0,0.868-0.704,1.573-1.572,1.573c-0.868,0-1.573-0.704-1.573-1.573s0.704-1.572,1.573-1.572
				C312.891,306.417,313.595,307.121,313.595,307.99z"/>
			<path style="fill:#FFFFFF;stroke:#407BFF;stroke-width:0.9629;stroke-miterlimit:10;" d="M320.468,310.243
				c0,0.868-0.704,1.572-1.573,1.572c-0.868,0-1.572-0.704-1.572-1.572c0-0.868,0.704-1.572,1.572-1.572
				C319.764,308.671,320.468,309.375,320.468,310.243z"/>
			<path style="fill:#FFFFFF;stroke:#407BFF;stroke-width:0.9629;stroke-miterlimit:10;" d="M327.101,304.159
				c0,0.868-0.704,1.572-1.572,1.572c-0.868,0-1.573-0.704-1.573-1.572c0-0.868,0.704-1.573,1.573-1.573
				C326.397,302.586,327.101,303.29,327.101,304.159z"/>
			<path style="fill:#FFFFFF;stroke:#407BFF;stroke-width:0.9629;stroke-miterlimit:10;" d="M340.124,310.484
				c0,0.868-0.704,1.572-1.573,1.572c-0.868,0-1.572-0.704-1.572-1.572c0-0.868,0.704-1.572,1.572-1.572
				C339.42,308.912,340.124,309.616,340.124,310.484z"/>
			<path style="fill:#FFFFFF;stroke:#407BFF;stroke-width:0.9629;stroke-miterlimit:10;" d="M346.757,303.918
				c0,0.868-0.704,1.572-1.573,1.572c-0.868,0-1.572-0.704-1.572-1.572c0-0.868,0.704-1.573,1.572-1.573
				C346.053,302.345,346.757,303.049,346.757,303.918z"/>
			<path style="fill:#FFFFFF;stroke:#407BFF;stroke-width:0.9629;stroke-miterlimit:10;" d="M360.021,291.508
				c0,0.868-0.704,1.573-1.572,1.573c-0.868,0-1.572-0.704-1.572-1.573c0-0.868,0.704-1.572,1.572-1.572
				C359.317,289.935,360.021,290.639,360.021,291.508z"/>
		</g>
	</g>
</g>
<g id="Screen_1">
	<g>
		<path style="fill:#407BFF;" d="M288.63,215.918h-76.512c-1.41,0-2.553-1.143-2.553-2.553v-56.197c0-1.41,1.143-2.553,2.553-2.553
			h76.512c1.41,0,2.553,1.143,2.553,2.553v56.197C291.184,214.775,290.041,215.918,288.63,215.918z"/>
		<path style="opacity:0.7;fill:#FFFFFF;" d="M288.63,215.918h-76.512c-1.41,0-2.553-1.143-2.553-2.553v-56.197
			c0-1.41,1.143-2.553,2.553-2.553h76.512c1.41,0,2.553,1.143,2.553,2.553v56.197C291.184,214.775,290.041,215.918,288.63,215.918z"
			/>
		<g>
			<path style="opacity:0.1;" d="M282.659,168.179v-0.241h-3.82v-3.589h-0.241v3.589h-6.391v-3.589h-0.241v3.589h-6.392v-3.589
				h-0.241v3.589h-6.392v-3.589h-0.241v3.589h-6.392v-3.589h-0.241v3.589h-6.391v-3.589h-0.241v3.589h-6.392v-3.589h-0.241v3.589
				h-6.392v-3.589h-0.241v3.589h-6.392v-3.589h-0.241v3.589h-7.182v0.241h7.182v6.085h-7.182v0.241h7.182v6.085h-7.182v0.241h7.182
				v6.085h-7.182v0.241h7.182v6.085h-7.182v0.241h7.182v6.085h-7.182v0.241h7.182v6.78h0.241v-6.78h6.392v6.78h0.241v-6.78h6.392
				v6.78h0.241v-6.78h6.392v6.78h0.241v-6.78h6.391v6.78h0.241v-6.78h6.392v6.78h0.241v-6.78h6.392v6.78h0.241v-6.78h6.392v6.78
				h0.241v-6.78h6.391v6.78h0.241v-6.78h3.82v-0.241h-3.82v-6.085h3.82v-0.241h-3.82v-6.085h3.82v-0.241h-3.82v-6.085h3.82v-0.241
				h-3.82v-6.085h3.82v-0.241h-3.82v-6.085H282.659z M271.967,168.179v6.085h-6.392v-6.085H271.967z M245.678,180.83h6.391v6.085
				h-6.391V180.83z M245.438,186.915h-6.392v-6.085h6.392V186.915z M252.31,180.83h6.392v6.085h-6.392V180.83z M258.943,180.83
				h6.392v6.085h-6.392V180.83z M258.943,180.589v-6.085h6.392v6.085H258.943z M258.702,180.589h-6.392v-6.085h6.392V180.589z
				 M252.07,180.589h-6.391v-6.085h6.391V180.589z M245.438,180.589h-6.392v-6.085h6.392V180.589z M238.805,180.589h-6.392v-6.085
				h6.392V180.589z M238.805,180.83v6.085h-6.392v-6.085H238.805z M238.805,187.156v6.085h-6.392v-6.085H238.805z M239.046,187.156
				h6.392v6.085h-6.392V187.156z M245.678,187.156h6.391v6.085h-6.391V187.156z M252.31,187.156h6.392v6.085h-6.392V187.156z
				 M258.943,187.156h6.392v6.085h-6.392V187.156z M265.575,187.156h6.392v6.085h-6.392V187.156z M265.575,186.915v-6.085h6.392
				v6.085H265.575z M265.575,180.589v-6.085h6.392v6.085H265.575z M265.335,168.179v6.085h-6.392v-6.085H265.335z M258.702,168.179
				v6.085h-6.392v-6.085H258.702z M252.07,168.179v6.085h-6.391v-6.085H252.07z M245.438,168.179v6.085h-6.392v-6.085H245.438z
				 M238.805,168.179v6.085h-6.392v-6.085H238.805z M225.781,168.179h6.392v6.085h-6.392V168.179z M225.781,174.505h6.392v6.085
				h-6.392V174.505z M225.781,180.83h6.392v6.085h-6.392V180.83z M225.781,187.156h6.392v6.085h-6.392V187.156z M225.781,199.566
				v-6.085h6.392v6.085H225.781z M232.414,199.566v-6.085h6.392v6.085H232.414z M239.046,199.566v-6.085h6.392v6.085H239.046z
				 M245.678,199.566v-6.085h6.391v6.085H245.678z M252.31,199.566v-6.085h6.392v6.085H252.31z M258.943,199.566v-6.085h6.392v6.085
				H258.943z M265.575,199.566v-6.085h6.392v6.085H265.575z M278.599,199.566h-6.391v-6.085h6.391V199.566z M278.599,193.24h-6.391
				v-6.085h6.391V193.24z M278.599,186.915h-6.391v-6.085h6.391V186.915z M278.599,180.589h-6.391v-6.085h6.391V180.589z
				 M278.599,174.264h-6.391v-6.085h6.391V174.264z"/>
			<g>
				<rect x="222.465" y="202.217" style="fill:#407BFF;" width="5.081" height="3.813"/>
				<rect x="232.298" y="195.18" style="fill:#407BFF;" width="5.081" height="10.85"/>
				<rect x="242.132" y="187.364" style="fill:#407BFF;" width="5.081" height="18.666"/>
				<rect x="251.966" y="190.738" style="fill:#407BFF;" width="5.081" height="15.292"/>
				<rect x="261.799" y="184.601" style="fill:#407BFF;" width="5.081" height="21.429"/>
				<rect x="271.633" y="169.646" style="fill:#407BFF;" width="5.081" height="36.384"/>
			</g>
			<polyline style="fill:none;stroke:#263238;stroke-width:0.9629;stroke-miterlimit:10;" points="282.391,206.03 218.09,206.03 
				218.09,163.946 			"/>
		</g>
	</g>
</g>
<g id="Speech_bubble_2">
	<g>
		<g>
			
				<ellipse transform="matrix(0.7071 -0.7071 0.7071 0.7071 23.1978 332.4078)" style="fill:#407BFF;" cx="412.851" cy="138.202" rx="17.955" ry="17.955"/>
		</g>
		<g>
			<path style="fill:#FFFFFF;" d="M415.507,134.39c0-1.511-1.295-2.536-3.372-2.536c-1.997,0-3.453,0.755-4.397,2.077l-2.617-1.7
				c1.511-2.05,3.939-3.292,7.311-3.292c3.965,0,6.609,1.808,6.609,4.91c0,4.398-4.613,4.802-4.613,7.985h-3.426
				C411.001,137.843,415.507,137.087,415.507,134.39z M410.57,146.179c0-1.16,0.891-2.077,2.158-2.077
				c1.241,0,2.131,0.917,2.131,2.077c0,1.16-0.89,2.105-2.131,2.105C411.46,148.283,410.57,147.339,410.57,146.179z"/>
		</g>
		<g>
			<polygon style="fill:#407BFF;" points="412.85,151.026 410.393,154.354 412.85,161.682 415.308,154.354 			"/>
		</g>
	</g>
</g>
<g id="Character">
	<g>
		<path style="fill:#407BFF;" d="M396.751,226.57c0,0-1.22,1.45-3.03,3.48c-1.62,1.79-3.7,4.03-5.83,6.11
			c-3.87,3.77-7.91,7.01-9.55,6.03c-3.15-1.87-1.4-6.89-1.4-6.89s10.97-20.17,17.78-23.31c4.36-2.01,10.87-1.13,10.87-1.13
			C406.301,212.76,396.751,226.57,396.751,226.57z"/>
		<path style="opacity:0.2;" d="M393.72,230.05c-1.62,1.79-3.7,4.03-5.83,6.11c0.97-9.6,5.58-15.16,5.58-15.16
			C394.311,222.5,394.251,226.07,393.72,230.05z"/>
		<path style="fill:#263238;" d="M428.92,218.999c3.483-3.897,1.361-10.958,2.447-25.049c1.087-14.091-7.762-16.003-7.762-16.003
			s-1.216-6.956-7.77-6.622c-6.554,0.333-19.368,3.398-19.498,18.499s-2.193,17.191-5.687,20.235
			c-3.494,3.044,3.755,9.208,2.371,12.09c0,0,13.497,5.829,32.463,4.66C425.484,226.809,424.802,223.606,428.92,218.999z"/>
		<g>
			<path style="fill:#407BFF;" d="M430.652,403.368l-0.786,1.086l-1.559-0.667l-0.972,4.768l-6.577,9.113
				c0,0-2.503,0.398-0.531-4.78c0.089-0.236,0.161-0.495,0.208-0.784c0.585-3.097-0.703-9.036-0.703-9.036l3.609-5
				c0,0,0.376,0.006,1.016,0.111C425.852,398.426,428.842,399.149,430.652,403.368z"/>
			<path style="opacity:0.2;" d="M430.652,403.368l-0.786,1.086l-1.559-0.667l-0.972,4.768l-6.577,9.113c0,0-2.503,0.398-0.531-4.78
				c0.089-0.236,0.161-0.495,0.208-0.784c0.585-3.097-0.703-9.036-0.703-9.036l3.609-5c0,0,0.376,0.006,1.016,0.111
				C425.852,398.426,428.842,399.149,430.652,403.368z"/>
			<path style="fill:#EBB376;" d="M424.357,398.178c0.008,0.005,0.015,0.011,0.015,0.011c-1.212,0.129-0.149,5.467-0.637,8.461
				c-0.44,2.672-1.601,5.192-3.301,5.453c0.585-3.097-1.526-10.156-1.526-10.156l2.902-4.021
				C421.811,397.926,423.717,398.074,424.357,398.178z"/>
			<path style="opacity:0.2;" d="M424.357,398.178c0.008,0.005,0.015,0.011,0.015,0.011c-1.212,0.129-0.149,5.467-0.637,8.461
				c-0.44,2.672-1.601,5.192-3.301,5.453c0.585-3.097-1.526-10.156-1.526-10.156l2.902-4.021
				C421.811,397.926,423.717,398.074,424.357,398.178z"/>
		</g>
		<g>
			<path style="fill:#407BFF;" d="M420.584,417.329l-1.34-0.002l-0.372-1.654l-4.435,2.003h-11.239c0,0-1.787-1.797,3.565-3.228
				c0.243-0.065,0.496-0.159,0.758-0.29c2.854-1.338,6.915-5.858,6.915-5.858h6.167c0,0,0.215,0.309,0.505,0.889
				C421.781,410.545,422.945,413.392,420.584,417.329z"/>
			<path style="fill:#EBB376;" d="M421.108,409.188c0,0.009,0,0.019,0,0.019c-0.814-0.908-4.52,3.079-7.233,4.436
				c-2.424,1.207-5.147,1.74-6.354,0.515c2.854-1.338,7.342-7.181,7.342-7.181h4.959
				C419.822,406.976,420.818,408.608,421.108,409.188z"/>
		</g>
		<path style="fill:#263238;" d="M386.612,344.444c3.01,5.549,6.049,11.52,8.971,17.5c3.843,7.893,7.471,15.804,10.569,22.883
			c3.265,7.461,5.922,13.981,7.578,18.51c1.569,0.176,6.304-2.647,7.667-5.206c0,0-3.353-21.824-11.03-42.815
			c-3.059-8.363-6.804-16.589-11.304-23.246c18.393-52.335,13.883-71.953,13.883-71.953l-21.314-0.951
			c0,0-3.226,19.491-5.804,39.482c0,0,0,0,0,0.01c-1.343,10.481-2.51,21.099-2.941,29.119v0.078
			C382.573,333.629,383.858,339.365,386.612,344.444z"/>
		<path style="opacity:0.2;" d="M404.184,316.503c2.698-8.895,4.643-16.598,6.016-23.205c-1.363-5.167-3.299-9.591-5.93-12.251
			C404.269,281.047,400.484,295.443,404.184,316.503z"/>
		<path style="opacity:0.2;" d="M406.152,384.827c3.265,7.461,5.922,13.981,7.578,18.51c1.569,0.176,6.304-2.647,7.667-5.206
			c0,0-3.353-21.824-11.03-42.815C408.809,363.983,407.064,374.935,406.152,384.827z"/>
		<g>
			<path style="fill:#263238;" d="M399.761,256.8c0,0,6.205,48.015,9.761,71.123c3.735,24.268,4.209,63.208,3.275,79.077
				c1.359,0.79,6.315,1.745,8.992,0.908c0,0,12.655-49.081,4.249-77.588c7.654-56.151-3.423-69.901-3.423-69.901L399.761,256.8z"/>
		</g>
		<path style="opacity:0.7;fill:#FFFFFF;" d="M401.829,226.568c9.128-8.569,20.589-14.353,20.589-14.353
			c-0.676-0.079-1.372-0.147-2.069-0.206c-5.245-0.431-9.539-0.745-14.216-0.48c-1.177,0.069-2.382,0.167-3.569,0.265v0.01
			C399.623,218.538,401.829,226.568,401.829,226.568z"/>
		<g>
			<path style="fill:#407BFF;" d="M422.418,256.8c0.647-7.284,3.255-20.634,7.745-34.654c1.461-4.559-1.016-9.706-1.016-9.706
				s-6.111-0.157-6.729-0.225c-0.676-0.079-1.372-0.147-2.069-0.206c-5.245-0.431-9.539-0.745-14.216-0.48
				c-1.177,0.069-2.382,0.167-3.569,0.265c-0.382,0.039-4.679,0.078-5.052,0.118c0,0-5.949,6.804-6.312,12.314
				c-0.196,3.079-0.657,5.402-0.49,12.765c0.029,5,0.391,11.598,0.724,18.627L422.418,256.8z"/>
			<path style="opacity:0.8;fill:#FFFFFF;" d="M422.418,256.8c0.647-7.284,3.255-20.634,7.745-34.654
				c1.461-4.559-1.016-9.706-1.016-9.706s-6.111-0.157-6.729-0.225c-0.676-0.079-1.372-0.147-2.069-0.206
				c-5.245-0.431-9.539-0.745-14.216-0.48c-1.177,0.069-2.382,0.167-3.569,0.265c-0.382,0.039-4.679,0.078-5.052,0.118
				c0,0-5.949,6.804-6.312,12.314c-0.196,3.079-0.657,5.402-0.49,12.765c0.029,5,0.391,11.598,0.724,18.627L422.418,256.8z"/>
			<path style="fill:#263238;" d="M422.418,256.8l-31.026-2.092c0,0-0.933,9.317-0.716,9.184c0.216-0.134,33.211,1.163,33.211,1.163
				L422.418,256.8z"/>
			<polygon points="422.136,257.312 391.435,255.617 391.435,258.526 422.418,260.174 			"/>
			<path style="fill:none;stroke:#FFFFFF;stroke-width:0.5;stroke-miterlimit:10;" d="M405.441,258.926l0.133-1.706
				c0.025-0.325-0.217-0.608-0.542-0.634l-3.363-0.262c-0.343-0.027-0.635,0.244-0.635,0.588v1.796c0,0.314,0.245,0.572,0.558,0.589
				l3.229,0.172C405.142,259.485,405.416,259.245,405.441,258.926z"/>
		</g>
		<path style="fill:#407BFF;" d="M419.897,278.114l10.726-1.941l-6.245-23.069c0,0,1.598-5.726,3.363-12.295
			c0.853-3.196,1.745-6.588,2.5-9.608c1.098-4.353,1.922-7.961,1.98-9.137c0.196-3.677-3.078-9.628-3.078-9.628l-7.745-1.255
			c0,0-7.059,7.794-7.52,22.726C413.416,248.829,419.897,278.114,419.897,278.114z"/>
		<path style="fill:#407BFF;" d="M403.717,211.185c0,0-6.723,11.722-8.274,20.384c-1.551,8.662-5.818,45.509-5.818,45.509
			l-2.327-1.164l3.232-21.979c0,0-1.164-25.478-0.259-30.71c0.905-5.232,6.762-12.041,6.762-12.041H403.717z"/>
		<g>
			<path style="fill:#407BFF;" d="M407.052,210.629l-0.459-0.41c0,0-6.561,0.801-12.573,8.312l2.327,2.275l-3.976,3.2l1.893,15.451
				c0,0,6.058-20.59,8.676-25.535C402.941,213.922,405.127,211.58,407.052,210.629z"/>
			<path style="opacity:0.2;" d="M407.052,210.629l-0.459-0.382c0,0-6.561,0.773-12.573,8.284l2.327,2.275l-3.976,3.2l1.893,15.451
				c0,0,6.058-20.59,8.676-25.535C402.941,213.922,405.127,211.58,407.052,210.629z"/>
			<path style="fill:#407BFF;" d="M419.896,211.185c0,0-7.49,8.266-5.822,29.985l7.325-15.613l-2.651-4.266l6.206-5.818
				c0,0-3.255-6.17-5.555-5.558L419.896,211.185z"/>
			<path style="opacity:0.2;" d="M419.896,211.185c0,0-7.49,8.266-5.822,29.985l7.325-15.613l-2.651-4.266l6.206-5.818
				c0,0-3.255-6.17-5.555-5.558L419.896,211.185z"/>
		</g>
		<g>
			<path style="fill:#EBB376;" d="M404.298,213.534l1.726,10.294l13.54-11.844c-2.863-3.157-1.059-11.481,0.333-16.02l-3.834,2.873
				l-5.706,4.265c0.137,0.951,0.01,2.255-0.275,3.51c-0.431,1.814-1.206,3.52-2.059,3.882L404.298,213.534z"/>
			<path style="opacity:0.2;" d="M410.082,206.612c2.275-0.51,5.255-2.863,5.736-5.187c0.196-0.98,0.284-1.941,0.245-2.588
				l-5.706,4.265C410.494,204.053,410.367,205.357,410.082,206.612z"/>
			<path style="fill:#407BFF;" d="M418.895,209.382c0,0-5.793,4.476-12.592,13.914c0,0-0.609-9.422,1.723-12.797l-0.486-0.58
				c0,0-4.976,1.875-8.962,7.107l4.493-1.422l3.067,8.307l9.247-7.63l6.218,1.077C421.602,217.356,421.286,211.224,418.895,209.382z
				"/>
			<path style="opacity:0.7;fill:#FFFFFF;" d="M418.895,209.382c0,0-5.793,4.476-12.592,13.914c0,0-0.609-9.422,1.723-12.797
				l-0.486-0.58c0,0-4.976,1.875-8.962,7.107l4.493-1.422l3.067,8.307l9.247-7.63l6.218,1.077
				C421.602,217.356,421.286,211.224,418.895,209.382z"/>
		</g>
		<path style="opacity:0.2;" d="M426.318,239.034c0.324,0.824,0.824,1.392,1.422,1.775c0.853-3.196,1.745-6.588,2.5-9.608
			c-1.98-2.392-3.657-4.392-3.657-4.392S424.298,233.897,426.318,239.034z"/>
		<path style="fill:#407BFF;" d="M429.143,212.44c4.245,0.513,17.238,32.783,16.463,37.883c-0.776,5.1-28.725,2.779-28.725,2.779
			v-7.764l16.313-3.287l-5.647-11.073c0,0-1.7-5.166-1.227-9.947C426.795,216.249,429.143,212.44,429.143,212.44z"/>
		<g>
			<path style="fill:#263238;" d="M404.689,259.612l21.443-2.602c0.826-0.1,1.395-0.832,1.269-1.634l-3.766-27.576
				c-0.125-0.803-0.896-1.372-1.723-1.271l-21.443,2.602c-0.826,0.1-1.395,0.832-1.269,1.634l3.766,27.576
				C403.092,259.143,403.863,259.713,404.689,259.612z"/>
			<path style="opacity:0.6;fill:#FFFFFF;" d="M404.689,259.612l21.443-2.602c0.826-0.1,1.395-0.832,1.269-1.634l-3.766-27.576
				c-0.125-0.803-0.896-1.372-1.723-1.271l-21.443,2.602c-0.826,0.1-1.395,0.832-1.269,1.634l3.766,27.576
				C403.092,259.143,403.863,259.713,404.689,259.612z"/>
			<path style="opacity:0.2;fill:#FFFFFF;" d="M405.586,259.504l20.547-2.493c0.826-0.1,1.395-0.832,1.269-1.634l-3.766-27.576
				c-0.125-0.803-0.896-1.372-1.723-1.271l-20.547,2.493c-0.826,0.1-1.395,0.832-1.269,1.635l3.766,27.576
				C403.988,259.035,404.759,259.604,405.586,259.504z"/>
			<path style="fill:#263238;" d="M413.804,240.718c1.279-0.155,2.473,0.726,2.667,1.968c0.194,1.243-0.686,2.376-1.965,2.531
				c-1.279,0.155-2.473-0.726-2.667-1.969C413.118,243.093,413.998,241.96,413.804,240.718z"/>
			<path style="opacity:0.3;" d="M406.519,230.622l11.326-1.374c0.553-0.067,1-0.455,1.127-0.979l0.345-1.425l-14.951,1.814
				l0.769,1.29C405.417,230.422,405.966,230.689,406.519,230.622z"/>
		</g>
		<path style="fill:#EBB376;" d="M404.903,244.387l6.38,1.827l1.337,4.225c-0.612,3.433-7.214,1.967-7.214,1.967l-1.353,0.852
			c-1.098,0.692-2.547,0.049-2.772-1.229l-0.701-3.993c-0.117-0.665,0.143-1.34,0.675-1.755l2.022-1.577
			C403.738,244.344,404.342,244.227,404.903,244.387z"/>
		<path style="fill:#407BFF;" d="M442.138,236.999c2.239,6.128,3.747,11.488,3.468,13.323c-0.776,5.1-33.508,1.954-33.508,1.954
			l-0.814-6.063l21.911-4.163L442.138,236.999z"/>
		<g>
			<path style="fill:#EBB376;" d="M410.594,179.01c-7.346,0.508-9.439,4.604-9.454,12.212c-0.019,9.507,2.543,16.084,11.589,13.429
				C425.014,201.045,422.794,178.167,410.594,179.01z"/>
			<path style="fill:#D58745;" d="M405.86,190.483c0,0-0.885,1.989-1.927,3.194c0,0,0.698,0.956,1.994,0.697L405.86,190.483z"/>
			<g>
				<path style="fill:#263238;" d="M410.315,189.572c0.028,0.605,0.377,1.079,0.78,1.061c0.403-0.018,0.707-0.523,0.68-1.128
					c-0.027-0.604-0.376-1.079-0.78-1.061C410.592,188.462,410.287,188.967,410.315,189.572z"/>
				<path style="fill:#263238;" d="M411.164,188.466l-1.338-0.456C409.826,188.01,410.531,189.086,411.164,188.466z"/>
			</g>
			<g>
				<path style="fill:#263238;" d="M402.795,189.789c0.027,0.605,0.377,1.079,0.779,1.061c0.403-0.018,0.707-0.523,0.68-1.128
					c-0.027-0.604-0.377-1.079-0.78-1.061C403.072,188.68,402.767,189.184,402.795,189.789z"/>
				<path style="fill:#263238;" d="M403.644,188.683l-1.338-0.456C402.306,188.227,403.011,189.303,403.644,188.683z"/>
			</g>
			<path style="fill:none;stroke:#263238;stroke-width:0.7;stroke-linecap:round;stroke-linejoin:round;stroke-miterlimit:10;" d="
				M410.038,184.494c0,0,2.046-0.411,3.263,0.891"/>
			<path style="fill:none;stroke:#263238;stroke-width:0.7;stroke-linecap:round;stroke-linejoin:round;stroke-miterlimit:10;" d="
				M404.677,184.552c0,0-1.331-0.391-2.886,0.806"/>
			<path style="fill:#263238;" d="M419.478,190.837c0,0-3.852-5.799-3.654-10.494c0,0-14.969-4.942-14.667,9.885
				c0,0-2.329-13.023,10.28-14.188c12.589-1.163,13.831,17.314,7.69,23.27C419.127,199.31,421.864,194.466,419.478,190.837z"/>
			<path style="fill:none;stroke:#263238;stroke-width:0.5;stroke-linecap:round;stroke-linejoin:round;stroke-miterlimit:10;" d="
				M411.048,195.384c0,0-1.03,2.805-4.186,2.154"/>
			<g>
				<g>
					<path style="fill:#263238;" d="M420.749,189.536l-7.331,0.013c-0.019-0.22-0.061-0.443-0.133-0.665
						c-0.554-1.727-2.525-2.783-4.395-2.355c-1.478,0.339-2.441,1.507-2.513,2.834c-0.306-0.224-0.605-0.33-0.891-0.302
						c-0.165,0.015-0.294,0.074-0.406,0.145c-0.024-0.17-0.05-0.34-0.105-0.51c-0.553-1.727-2.525-2.783-4.395-2.355
						c-1.869,0.428-2.94,2.182-2.387,3.909c0.553,1.727,2.525,2.783,4.395,2.355c1.469-0.337,2.431-1.494,2.513-2.811
						c0.01-0.018,0.163-0.295,0.454-0.329c0.235-0.022,0.526,0.141,0.843,0.464c0.024,0.169,0.05,0.339,0.105,0.508
						c0.554,1.727,2.526,2.784,4.395,2.356c1.479-0.339,2.442-1.509,2.513-2.837l7.358-0.013c0.018,0,0.036-0.002,0.053-0.006
						c0.096-0.022,0.164-0.102,0.159-0.198C420.976,189.626,420.872,189.535,420.749,189.536z M402.461,192.209
						c-1.634,0.374-3.357-0.549-3.84-2.058c-0.484-1.509,0.452-3.041,2.086-3.415c1.634-0.374,3.357,0.549,3.841,2.058
						C405.031,190.303,404.095,191.835,402.461,192.209z M410.771,192.397c-1.634,0.374-3.357-0.549-3.841-2.058
						c-0.484-1.509,0.452-3.041,2.086-3.416c1.634-0.374,3.357,0.549,3.841,2.058C413.341,190.49,412.405,192.023,410.771,192.397z"
						/>
				</g>
				<g style="opacity:0.3;enable-background:new    ;">
					<path style="fill:#FFFFFF;" d="M420.749,189.536l-7.331,0.013c-0.019-0.22-0.061-0.443-0.133-0.665
						c-0.554-1.727-2.525-2.783-4.395-2.355c-1.478,0.339-2.441,1.507-2.513,2.834c-0.306-0.224-0.605-0.33-0.891-0.302
						c-0.165,0.015-0.294,0.074-0.406,0.145c-0.024-0.17-0.05-0.34-0.105-0.51c-0.553-1.727-2.525-2.783-4.395-2.355
						c-1.869,0.428-2.94,2.182-2.387,3.909c0.553,1.727,2.525,2.783,4.395,2.355c1.469-0.337,2.431-1.494,2.513-2.811
						c0.01-0.018,0.163-0.295,0.454-0.329c0.235-0.022,0.526,0.141,0.843,0.464c0.024,0.169,0.05,0.339,0.105,0.508
						c0.554,1.727,2.526,2.784,4.395,2.356c1.479-0.339,2.442-1.509,2.513-2.837l7.358-0.013c0.018,0,0.036-0.002,0.053-0.006
						c0.096-0.022,0.164-0.102,0.159-0.198C420.976,189.626,420.872,189.535,420.749,189.536z M402.461,192.209
						c-1.634,0.374-3.357-0.549-3.84-2.058c-0.484-1.509,0.452-3.041,2.086-3.415c1.634-0.374,3.357,0.549,3.841,2.058
						C405.031,190.303,404.095,191.835,402.461,192.209z M410.771,192.397c-1.634,0.374-3.357-0.549-3.841-2.058
						c-0.484-1.509,0.452-3.041,2.086-3.416c1.634-0.374,3.357,0.549,3.841,2.058C413.341,190.49,412.405,192.023,410.771,192.397z"
						/>
				</g>
			</g>
			<path style="fill:#EBB376;" d="M418.385,192.471c-0.033-1.186,1.05-3.272,3.266-3.184c2.294,0.091,3.702,4.69-1.883,6.205
				C418.966,195.709,418.453,194.946,418.385,192.471z"/>
		</g>
		<path style="opacity:0.2;" d="M382.442,238.701c0,0,16.497-21.667,15.07-26.79s-11.129,10.962-11.129,10.962L382.442,238.701z"/>
		<path style="opacity:0.2;" d="M406.63,204.86c-2.1-0.71-3.48-2.42-4.33-4.83l2.31-0.72L406.63,204.86z"/>
		<g>
			<path style="fill:#EBB376;" d="M393.475,209.038l4.189-6.3l4.301,7.205c0,0-4.077,5.396-6.768,3.178L393.475,209.038z"/>
			<polygon style="fill:#EBB376;" points="404.453,199.567 406.047,207.018 401.964,209.943 397.663,202.738 			"/>
		</g>
		<path style="fill:#407BFF;" d="M382.841,238.362l-4.5,3.83c0,0-4.133,0.143-4.979-4.468c-1.404-7.66,19.7-29.676,19.7-29.676
			l4.093,5.562L382.841,238.362z"/>
	</g>
</g>
</svg>
