<?xml version="1.0" standalone="no"?>
<!DOCTYPE svg PUBLIC "-//W3C//DTD SVG 20010904//EN"
 "http://www.w3.org/TR/2001/REC-SVG-20010904/DTD/svg10.dtd">
<svg version="1.0" xmlns="http://www.w3.org/2000/svg"
 width="500.000000pt" height="500.000000pt" viewBox="0 0 500.000000 500.000000"
 preserveAspectRatio="xMidYMid meet">

<g transform="translate(0.000000,500.000000) scale(0.100000,-0.100000)"
fill="#000000" stroke="none">
<path d="M730 3540 l0 -260 260 0 260 0 0 260 0 260 -260 0 -260 0 0 -260z
m140 151 c0 -15 -16 -22 -34 -15 -25 9 -19 24 9 24 14 0 25 -4 25 -9z m255 -1
c4 -7 -32 -10 -109 -10 -64 0 -116 4 -116 9 0 13 217 14 225 1z m-230 -75 c0
-5 -17 -11 -37 -13 -30 -3 -38 0 -38 13 0 13 8 16 38 13 20 -2 37 -7 37 -13z
m208 -2 c-35 -2 -91 -2 -125 0 -35 2 -7 3 62 3 69 0 97 -1 63 -3z m-253 -73
c0 -5 -18 -10 -40 -10 -22 0 -40 5 -40 10 0 6 18 10 40 10 22 0 40 -4 40 -10z
m350 0 c0 -6 -60 -10 -160 -10 -100 0 -160 4 -160 10 0 6 60 10 160 10 100 0
160 -4 160 -10z m-330 -65 c0 -9 -9 -15 -25 -15 -16 0 -25 6 -25 15 0 9 9 15
25 15 16 0 25 -6 25 -15z m208 -2 c-32 -2 -86 -2 -120 0 -35 2 -9 3 57 3 66 0
94 -1 63 -3z m-178 -73 c0 -5 -18 -10 -40 -10 -22 0 -40 5 -40 10 0 6 18 10
40 10 22 0 40 -4 40 -10z m40 0 c0 -5 -4 -10 -10 -10 -5 0 -10 5 -10 10 0 6 5
10 10 10 6 0 10 -4 10 -10z m210 0 c0 -6 -40 -10 -100 -10 -60 0 -100 4 -100
10 0 6 40 10 100 10 60 0 100 -4 100 -10z"/>
<path d="M1620 3370 l0 -30 -145 0 -145 0 0 -44 c0 -28 -7 -52 -19 -67 -17
-22 -29 -24 -128 -29 l-108 -5 0 -75 1 -75 102 -5 c92 -5 104 -7 126 -30 l25
-25 2 -283 c3 -356 12 -335 -147 -342 l-109 -5 4 -320 c2 -176 4 -321 5 -322
0 0 42 -3 91 -5 l90 -3 5 78 c3 42 2 78 -3 80 -4 1 -4 65 0 142 6 138 7 140
36 168 l29 27 373 0 373 0 27 -32 28 -33 -4 -212 -4 -213 623 -4 c343 -2 625
-6 627 -8 2 -2 6 -162 8 -356 3 -336 5 -354 24 -380 l20 -27 339 -3 c186 -1
349 0 362 3 21 5 52 56 52 85 0 7 -123 10 -372 10 -307 0 -369 3 -348 13 14 7
25 21 25 32 0 11 6 19 13 17 7 -1 15 5 18 13 4 8 12 15 20 15 8 0 14 5 14 11
0 5 5 7 10 4 6 -3 10 -1 10 6 0 7 3 10 6 6 4 -3 21 0 38 7 17 7 54 16 81 20
28 4 70 13 95 21 25 7 69 16 97 19 76 9 139 39 162 77 26 43 19 62 -17 43 -21
-11 -78 -14 -245 -14 -238 0 -268 6 -287 56 -6 14 -10 117 -10 230 0 226 8
266 55 284 15 6 126 10 251 10 l225 0 24 -25 c24 -23 25 -29 27 -182 1 -87 2
-170 2 -185 1 -16 6 -28 13 -28 7 0 13 2 13 4 0 29 44 213 53 218 16 10 25
133 26 341 1 247 3 245 -164 250 l-90 2 0 295 -1 295 -196 0 c-194 0 -197 0
-222 24 l-26 24 0 207 0 206 -101 3 -101 2 6 -228 c3 -125 6 -337 7 -470 1
-263 2 -261 -58 -292 -31 -16 -1627 -5 -1660 11 -42 21 -47 61 -39 373 7 294
11 349 27 339 5 -3 9 6 9 20 0 18 4 24 15 20 11 -5 15 2 17 27 3 71 15 -276
17 -489 l1 -222 784 0 784 0 4 447 c2 245 2 461 0 479 l-4 34 -784 0 -784 0 0
-30z m330 -110 c0 -6 -33 -10 -80 -10 -47 0 -80 4 -80 10 0 6 33 10 80 10 47
0 80 -4 80 -10z m390 0 c0 -6 -63 -10 -170 -10 -107 0 -170 4 -170 10 0 6 63
10 170 10 107 0 170 -4 170 -10z m-320 -90 c0 -6 -35 -10 -85 -10 -50 0 -85 4
-85 10 0 6 35 10 85 10 50 0 85 -4 85 -10z m1005 0 c4 -7 -155 -10 -469 -10
-311 0 -476 3 -476 10 0 7 163 10 469 10 303 0 472 -4 476 -10z m-1468 -62
c-3 -8 -6 -5 -6 6 -1 11 2 17 5 13 3 -3 4 -12 1 -19z m463 -23 c0 -12 -15 -15
-79 -15 -74 0 -100 7 -84 24 3 3 42 6 85 6 63 0 78 -3 78 -15z m778 -2 c-130
-2 -346 -2 -480 0 -134 1 -27 2 237 2 264 0 373 -1 243 -2z m-778 -78 c0 -12
-15 -15 -79 -15 -74 0 -100 7 -84 24 3 3 42 6 85 6 63 0 78 -3 78 -15z m723
-2 c-123 -2 -323 -2 -445 0 -123 1 -23 2 222 2 245 0 345 -1 223 -2z m270 0
c-7 -2 -21 -2 -30 0 -10 3 -4 5 12 5 17 0 24 -2 18 -5z m-993 -83 c0 -6 -35
-10 -85 -10 -50 0 -85 4 -85 10 0 6 35 10 85 10 50 0 85 -4 85 -10z m1000 0
c0 -6 -188 -9 -470 -10 -317 0 -470 3 -470 10 0 7 153 10 470 10 282 -1 470
-4 470 -10z m400 -71 c0 -6 7 -8 16 -5 8 3 13 2 9 -3 -3 -5 1 -12 7 -15 7 -3
2 -4 -12 -1 -24 5 -24 4 3 -8 15 -7 25 -16 21 -19 -3 -4 11 -10 32 -13 66 -11
62 -13 -23 -14 -67 -1 -83 -4 -83 -16 0 -13 25 -15 161 -15 158 0 160 0 157
21 -3 20 2 22 50 23 l52 2 0 -243 0 -243 -189 0 -189 0 -26 -31 c-26 -31 -26
-31 -26 -221 l0 -191 -322 6 c-178 4 -420 8 -538 8 -118 1 -202 4 -185 6 16 3
33 9 36 14 3 6 21 18 40 27 23 11 35 25 37 42 2 20 1 22 -7 10 -9 -13 -11 -13
-11 3 0 18 3 19 65 19 22 -1 32 2 23 4 -39 12 -14 20 47 16 36 -2 85 -1 109 2
l45 7 3 81 3 81 43 4 44 4 -4 -85 -3 -86 103 0 102 0 2 93 c0 50 1 97 1 104 0
7 22 14 56 18 86 8 154 26 171 45 8 9 23 19 32 23 10 3 15 13 12 24 -3 10 3
27 14 38 16 17 18 32 15 88 -3 45 -1 67 7 67 6 0 10 6 9 13 -5 39 2 107 11
102 6 -4 10 17 10 54 0 42 4 61 13 62 10 0 10 2 0 6 -20 8 -15 27 12 51 14 12
25 29 25 37 0 8 5 15 10 15 6 0 10 -5 10 -11z m-1470 -19 c0 -6 -33 -10 -80
-10 -47 0 -80 4 -80 10 0 6 33 10 80 10 47 0 80 -4 80 -10z m390 0 c0 -6 -63
-10 -170 -10 -107 0 -170 4 -170 10 0 6 63 10 170 10 107 0 170 -4 170 -10z
m348 -88 c3 -9 -74 -12 -307 -12 -197 0 -311 4 -311 10 0 6 107 11 288 12 345
4 325 4 330 -10z m350 0 c3 -9 -37 -12 -152 -12 -90 0 -156 4 -156 9 0 13 41
16 184 15 83 0 121 -4 124 -12z m-1048 -82 c0 -5 -5 -10 -11 -10 -5 0 -7 5 -4
10 3 6 8 10 11 10 2 0 4 -4 4 -10z m30 0 c0 -5 -4 -10 -10 -10 -5 0 -10 5 -10
10 0 6 5 10 10 10 6 0 10 -4 10 -10z m670 0 c0 -6 -110 -10 -310 -10 -200 0
-310 4 -310 10 0 6 110 10 310 10 200 0 310 -4 310 -10z m350 0 c0 -6 -58 -10
-155 -10 -97 0 -155 4 -155 10 0 6 58 10 155 10 97 0 155 -4 155 -10z m-350
-85 c0 -13 -41 -15 -310 -15 -269 0 -310 2 -310 15 0 13 41 15 310 15 269 0
310 -2 310 -15z m350 0 c0 -13 -24 -15 -155 -15 -131 0 -155 2 -155 15 0 13
24 15 155 15 131 0 155 -2 155 -15z m-1073 -2 c-20 -2 -52 -2 -70 0 -17 2 0 4
38 4 39 0 53 -2 32 -4z m1016 -350 c-7 -2 -19 -2 -25 0 -7 3 -2 5 12 5 14 0
19 -2 13 -5z m-498 -213 c-3 -5 -10 -10 -16 -10 -5 0 -9 5 -9 10 0 6 7 10 16
10 8 0 12 -4 9 -10z m-91 -82 c-3 -4 -12 -8 -20 -8 -8 0 -13 4 -10 8 3 5 12 9
20 9 8 0 13 -4 10 -9z"/>
<path d="M3396 2671 c-4 -5 -2 -11 4 -13 23 -7 300 4 300 13 0 12 -297 12
-304 0z"/>
<path d="M3400 2584 c0 -14 17 -16 147 -12 105 2 148 7 151 16 3 9 -31 12
-147 12 -132 0 -151 -2 -151 -16z"/>
<path d="M3099 2226 c-2 -2 -3 -50 -1 -105 l3 -101 100 0 99 0 0 100 0 100
-84 0 c-46 0 -91 2 -98 5 -8 3 -16 4 -19 1z"/>
<path d="M2505 1970 c3 -5 8 -10 11 -10 2 0 4 5 4 10 0 6 -5 10 -11 10 -5 0
-7 -4 -4 -10z"/>
<path d="M1440 1830 c14 -19 26 -27 37 -23 11 4 14 3 9 -5 -4 -7 -2 -12 3 -12
21 0 10 29 -18 49 -42 30 -56 26 -31 -9z"/>
<path d="M4080 1446 c0 -8 5 -18 10 -21 6 -3 10 1 10 9 0 8 -4 18 -10 21 -5 3
-10 -1 -10 -9z"/>
</g>
</svg>
